999
dxfrw 0.5.10
0
SECTION
2
HEADER
9
$ACADVER
1
AC1021
9
$HANDSEED
5
20000
9
$DWGCODEPAGE
3
ANSI_1252
9
$INSBASE
10
0
20
0
30
0
9
$EXTMIN
10
0
20
0
30
0
9
$EXTMAX
10
254.648000309
20
148.026192529
30
0
9
$LIMMIN
10
0
20
0
9
$LIMMAX
10
420
20
297
9
$ORTHOMODE
70
0
9
$LTSCALE
40
1
9
$TEXTSTYLE
7
STANDARD
9
$CLAYER
8
Stringers
9
$DIMASZ
40
0.1
9
$DIMLFAC
40
1
9
$DIMSCALE
40
12
9
$DIMEXO
40
0.025
9
$DIMEXE
40
0.05
9
$DIMTXT
40
0.1
9
$DIMTSZ
40
0
9
$DIMAUNIT
70
0
9
$DIMADEC
70
2
9
$DIMLUNIT
70
5
9
$DIMSTYLE
2
STANDARD
9
$DIMGAP
40
0.025
9
$DIMTIH
70
0
9
$LUNITS
70
5
9
$LUPREC
70
4
9
$AUNITS
70
0
9
$AUPREC
70
2
9
$SPLINESEGS
70
8
9
$GRIDMODE
70
1
9
$SNAPSTYLE
70
0
9
$GRIDUNIT
10
0
20
0
9
$PINSBASE
10
-0.0131218670262
20
-0.00318746542594
30
0
9
$PLIMMIN
10
0
20
0
9
$PLIMMAX
10
0.018600039
20
0.0139500356
9
$INSUNITS
70
1
9
$PSVPSCALE
40
0.000142857142857
0
ENDSEC
0
SECTION
2
CLASSES
0
ENDSEC
0
SECTION
2
TABLES
0
TABLE
2
VPORT
5
8
330
0
100
AcDbSymbolTable
70
1
0
VPORT
5
31
330
2
100
AcDbSymbolTableRecord
100
AcDbViewportTableRecord
2
*ACTIVE
70
0
10
0
20
0
11
1
21
1
12
100.543825976
22
48.6244401791
13
0
23
0
14
10
24
10
15
10
25
10
16
0
26
0
36
1
17
0
27
0
37
0
40
51.6954574536
41
1.95915841584
42
50
43
0
44
0
50
0
51
0
71
0
72
100
73
1
74
3
75
0
76
1
77
0
78
0
281
0
65
1
110
0
120
0
130
0
111
1
121
0
131
0
112
0
122
1
132
0
79
0
146
0
348
10020
60
7
61
5
292
1
282
1
141
0
142
0
63
250
421
3358443
0
ENDTAB
0
TABLE
2
LTYPE
5
5
330
0
100
AcDbSymbolTable
70
4
0
LTYPE
5
14
330
5
100
AcDbSymbolTableRecord
100
AcDbLinetypeTableRecord
2
ByBlock
70
0
3

72
65
73
0
40
0
0
LTYPE
5
15
330
5
100
AcDbSymbolTableRecord
100
AcDbLinetypeTableRecord
2
ByLayer
70
0
3

72
65
73
0
40
0
0
LTYPE
5
16
330
5
100
AcDbSymbolTableRecord
100
AcDbLinetypeTableRecord
2
Continuous
70
0
3
Solid line
72
65
73
0
40
0
0
LTYPE
5
32
330
5
100
AcDbSymbolTableRecord
100
AcDbLinetypeTableRecord
2
DOT
70
0
3
Dot . . . . . . . . . . . . . . . . . . . . . .
72
65
73
2
40
6.35
49
0
74
0
49
-6.35
74
0
0
LTYPE
5
33
330
5
100
AcDbSymbolTableRecord
100
AcDbLinetypeTableRecord
2
DOT2
70
0
3
Dot (.5x) .....................................
72
65
73
2
40
3.175
49
0
74
0
49
-3.175
74
0
0
LTYPE
5
34
330
5
100
AcDbSymbolTableRecord
100
AcDbLinetypeTableRecord
2
DOTX2
70
0
3
Dot (2x) .  .  .  .  .  .  .  .  .  .  .  .  .
72
65
73
2
40
12.7
49
0
74
0
49
-12.7
74
0
0
LTYPE
5
35
330
5
100
AcDbSymbolTableRecord
100
AcDbLinetypeTableRecord
2
DASHED
70
0
3
Dot . . . . . . . . . . . . . . . . . . . . . .
72
65
73
2
40
19.05
49
12.7
74
0
49
-6.35
74
0
0
LTYPE
5
36
330
5
100
AcDbSymbolTableRecord
100
AcDbLinetypeTableRecord
2
DASHED2
70
0
3
Dashed (.5x) _ _ _ _ _ _ _ _ _ _ _ _ _ _ _ _ _
72
65
73
2
40
9.525
49
6.35
74
0
49
-3.175
74
0
0
LTYPE
5
37
330
5
100
AcDbSymbolTableRecord
100
AcDbLinetypeTableRecord
2
DASHEDX2
70
0
3
Dashed (2x) ____  ____  ____  ____  ____  ___
72
65
73
2
40
38.1
49
25.4
74
0
49
-12.7
74
0
0
LTYPE
5
38
330
5
100
AcDbSymbolTableRecord
100
AcDbLinetypeTableRecord
2
DASHDOT
70
0
3
Dash dot __ . __ . __ . __ . __ . __ . __ . __
72
65
73
4
40
25.4
49
12.7
74
0
49
-6.35
74
0
49
0
74
0
49
-6.35
74
0
0
LTYPE
5
39
330
5
100
AcDbSymbolTableRecord
100
AcDbLinetypeTableRecord
2
DASHDOT2
70
0
3
Dash dot (.5x) _._._._._._._._._._._._._._._.
72
65
73
4
40
12.7
49
6.35
74
0
49
-3.175
74
0
49
0
74
0
49
-3.175
74
0
0
LTYPE
5
3A
330
5
100
AcDbSymbolTableRecord
100
AcDbLinetypeTableRecord
2
DASHDOTX2
70
0
3
Dash dot (2x) ____  .  ____  .  ____  .  ___
72
65
73
4
40
50.8
49
25.4
74
0
49
-12.7
74
0
49
0
74
0
49
-12.7
74
0
0
LTYPE
5
3B
330
5
100
AcDbSymbolTableRecord
100
AcDbLinetypeTableRecord
2
DIVIDE
70
0
3
Divide ____ . . ____ . . ____ . . ____ . . ____
72
65
73
6
40
31.75
49
12.7
74
0
49
-6.35
74
0
49
0
74
0
49
-6.35
74
0
49
0
74
0
49
-6.35
74
0
0
LTYPE
5
3C
330
5
100
AcDbSymbolTableRecord
100
AcDbLinetypeTableRecord
2
DIVIDE2
70
0
3
Divide (.5x) __..__..__..__..__..__..__..__.._
72
65
73
6
40
15.875
49
6.35
74
0
49
-3.175
74
0
49
0
74
0
49
-3.175
74
0
49
0
74
0
49
-3.175
74
0
0
LTYPE
5
3D
330
5
100
AcDbSymbolTableRecord
100
AcDbLinetypeTableRecord
2
DIVIDEX2
70
0
3
Divide (2x) ________  .  .  ________  .  .  _
72
65
73
6
40
63.5
49
25.4
74
0
49
-12.7
74
0
49
0
74
0
49
-12.7
74
0
49
0
74
0
49
-12.7
74
0
0
LTYPE
5
3E
330
5
100
AcDbSymbolTableRecord
100
AcDbLinetypeTableRecord
2
BORDER
70
0
3
Border __ __ . __ __ . __ __ . __ __ . __ __ .
72
65
73
6
40
44.45
49
12.7
74
0
49
-6.35
74
0
49
12.7
74
0
49
-6.35
74
0
49
0
74
0
49
-6.35
74
0
0
LTYPE
5
3F
330
5
100
AcDbSymbolTableRecord
100
AcDbLinetypeTableRecord
2
BORDER2
70
0
3
Border (.5x) __.__.__.__.__.__.__.__.__.__.__.
72
65
73
6
40
22.225
49
6.35
74
0
49
-3.175
74
0
49
6.35
74
0
49
-3.175
74
0
49
0
74
0
49
-3.175
74
0
0
LTYPE
5
40
330
5
100
AcDbSymbolTableRecord
100
AcDbLinetypeTableRecord
2
BORDERX2
70
0
3
Border (2x) ____  ____  .  ____  ____  .  ___
72
65
73
6
40
88.9
49
25.4
74
0
49
-12.7
74
0
49
25.4
74
0
49
-12.7
74
0
49
0
74
0
49
-12.7
74
0
0
LTYPE
5
41
330
5
100
AcDbSymbolTableRecord
100
AcDbLinetypeTableRecord
2
CENTER
70
0
3
Center ____ _ ____ _ ____ _ ____ _ ____ _ ____
72
65
73
4
40
50.8
49
31.75
74
0
49
-6.35
74
0
49
6.35
74
0
49
-6.35
74
0
0
LTYPE
5
42
330
5
100
AcDbSymbolTableRecord
100
AcDbLinetypeTableRecord
2
CENTER2
70
0
3
Center (.5x) ___ _ ___ _ ___ _ ___ _ ___ _ ___
72
65
73
4
40
28.575
49
19.05
74
0
49
-3.175
74
0
49
3.175
74
0
49
-3.175
74
0
0
LTYPE
5
43
330
5
100
AcDbSymbolTableRecord
100
AcDbLinetypeTableRecord
2
CENTERX2
70
0
3
Center (2x) ________  __  ________  __  _____
72
65
73
4
40
101.6
49
63.5
74
0
49
-12.7
74
0
49
12.7
74
0
49
-12.7
74
0
0
ENDTAB
0
TABLE
2
LAYER
5
2
330
0
100
AcDbSymbolTable
70
1
0
LAYER
5
10
330
2
100
AcDbSymbolTableRecord
100
AcDbLayerTableRecord
2
0
70
5
62
7
6
CONTINUOUS
370
0
390
F
0
LAYER
5
44
330
2
100
AcDbSymbolTableRecord
100
AcDbLayerTableRecord
2
Forms
70
1
62
5
6
CONTINUOUS
370
0
390
F
0
LAYER
5
45
330
2
100
AcDbSymbolTableRecord
100
AcDbLayerTableRecord
2
Dim
70
5
62
1
6
CONTINUOUS
370
0
390
F
0
LAYER
5
46
330
2
100
AcDbSymbolTableRecord
100
AcDbLayerTableRecord
2
Dim2
70
1
62
96
420
32768
6
CONTINUOUS
370
0
390
F
0
LAYER
5
47
330
2
100
AcDbSymbolTableRecord
100
AcDbLayerTableRecord
2
Dim22
70
1
62
1
6
CONTINUOUS
370
0
390
F
0
LAYER
5
48
330
2
100
AcDbSymbolTableRecord
100
AcDbLayerTableRecord
2
Stringers
70
0
62
7
6
CONTINUOUS
370
0
390
F
0
ENDTAB
0
TABLE
2
STYLE
5
3
330
0
100
AcDbSymbolTable
70
3
0
STYLE
5
49
330
2
100
AcDbSymbolTableRecord
100
AcDbTextStyleTableRecord
2
Standard
70
0
40
0
41
1
50
0
71
0
42
1
3
txt
4

0
ENDTAB
0
TABLE
2
VIEW
5
6
330
0
100
AcDbSymbolTable
70
0
0
ENDTAB
0
TABLE
2
UCS
5
7
330
0
100
AcDbSymbolTable
70
0
0
ENDTAB
0
TABLE
2
APPID
5
9
330
0
100
AcDbSymbolTable
70
1
0
APPID
5
12
330
9
100
AcDbSymbolTableRecord
100
AcDbRegAppTableRecord
2
ACAD
70
0
0
ENDTAB
0
TABLE
2
DIMSTYLE
5
A
330
0
100
AcDbSymbolTable
70
1
100
AcDbDimStyleTable
71
1
0
DIMSTYLE
105
4A
330
A
100
AcDbSymbolTableRecord
100
AcDbDimStyleTableRecord
2
Standard
70
0
40
1
41
0.1
42
0.025
43
0.38
44
0.05
45
0
46
0
47
0
48
0
140
0.1
141
0.09
142
0
143
25.4
144
1
145
0
146
1
147
0.025
148
0
71
0
72
0
73
0
74
1
75
0
76
0
77
0
78
0
79
0
170
0
171
2
172
0
173
0
174
0
175
0
176
0
177
0
178
0
179
0
271
4
272
4
273
2
274
2
275
0
276
0
277
2
278
46
279
0
280
0
281
0
282
0
283
1
284
0
285
0
286
0
288
0
289
3
340
Standard
341

371
-2
372
-2
0
ENDTAB
0
TABLE
2
BLOCK_RECORD
5
1
330
0
100
AcDbSymbolTable
70
2
0
BLOCK_RECORD
5
1F
330
1
100
AcDbSymbolTableRecord
100
AcDbBlockTableRecord
2
*Model_Space
70
0
280
1
281
0
0
BLOCK_RECORD
5
1E
330
1
100
AcDbSymbolTableRecord
100
AcDbBlockTableRecord
2
*Paper_Space
70
0
280
1
281
0
0
BLOCK_RECORD
5
4B
330
1
100
AcDbSymbolTableRecord
100
AcDbBlockTableRecord
2
*D33
70
0
280
1
281
0
0
BLOCK_RECORD
5
4E
330
1
100
AcDbSymbolTableRecord
100
AcDbBlockTableRecord
2
*D34
70
0
280
1
281
0
0
BLOCK_RECORD
5
51
330
1
100
AcDbSymbolTableRecord
100
AcDbBlockTableRecord
2
*D4
70
0
280
1
281
0
0
BLOCK_RECORD
5
54
330
1
100
AcDbSymbolTableRecord
100
AcDbBlockTableRecord
2
*D25
70
0
280
1
281
0
0
BLOCK_RECORD
5
57
330
1
100
AcDbSymbolTableRecord
100
AcDbBlockTableRecord
2
*D27
70
0
280
1
281
0
0
BLOCK_RECORD
5
5A
330
1
100
AcDbSymbolTableRecord
100
AcDbBlockTableRecord
2
*D5
70
0
280
1
281
0
0
BLOCK_RECORD
5
5D
330
1
100
AcDbSymbolTableRecord
100
AcDbBlockTableRecord
2
*D7
70
0
280
1
281
0
0
BLOCK_RECORD
5
60
330
1
100
AcDbSymbolTableRecord
100
AcDbBlockTableRecord
2
*D3
70
0
280
1
281
0
0
BLOCK_RECORD
5
63
330
1
100
AcDbSymbolTableRecord
100
AcDbBlockTableRecord
2
*D9
70
0
280
1
281
0
0
BLOCK_RECORD
5
66
330
1
100
AcDbSymbolTableRecord
100
AcDbBlockTableRecord
2
*D26
70
0
280
1
281
0
0
BLOCK_RECORD
5
69
330
1
100
AcDbSymbolTableRecord
100
AcDbBlockTableRecord
2
*D11
70
0
280
1
281
0
0
BLOCK_RECORD
5
6C
330
1
100
AcDbSymbolTableRecord
100
AcDbBlockTableRecord
2
*D8
70
0
280
1
281
0
0
BLOCK_RECORD
5
6F
330
1
100
AcDbSymbolTableRecord
100
AcDbBlockTableRecord
2
*D30
70
0
280
1
281
0
0
BLOCK_RECORD
5
72
330
1
100
AcDbSymbolTableRecord
100
AcDbBlockTableRecord
2
*D15
70
0
280
1
281
0
0
BLOCK_RECORD
5
75
330
1
100
AcDbSymbolTableRecord
100
AcDbBlockTableRecord
2
*D23
70
0
280
1
281
0
0
BLOCK_RECORD
5
78
330
1
100
AcDbSymbolTableRecord
100
AcDbBlockTableRecord
2
*D32
70
0
280
1
281
0
0
BLOCK_RECORD
5
7B
330
1
100
AcDbSymbolTableRecord
100
AcDbBlockTableRecord
2
*D16
70
0
280
1
281
0
0
BLOCK_RECORD
5
7E
330
1
100
AcDbSymbolTableRecord
100
AcDbBlockTableRecord
2
*D18
70
0
280
1
281
0
0
BLOCK_RECORD
5
81
330
1
100
AcDbSymbolTableRecord
100
AcDbBlockTableRecord
2
*D6
70
0
280
1
281
0
0
BLOCK_RECORD
5
84
330
1
100
AcDbSymbolTableRecord
100
AcDbBlockTableRecord
2
*D29
70
0
280
1
281
0
0
BLOCK_RECORD
5
87
330
1
100
AcDbSymbolTableRecord
100
AcDbBlockTableRecord
2
*D24
70
0
280
1
281
0
0
BLOCK_RECORD
5
8A
330
1
100
AcDbSymbolTableRecord
100
AcDbBlockTableRecord
2
*D19
70
0
280
1
281
0
0
BLOCK_RECORD
5
8D
330
1
100
AcDbSymbolTableRecord
100
AcDbBlockTableRecord
2
*D1
70
0
280
1
281
0
0
BLOCK_RECORD
5
90
330
1
100
AcDbSymbolTableRecord
100
AcDbBlockTableRecord
2
*D17
70
0
280
1
281
0
0
BLOCK_RECORD
5
93
330
1
100
AcDbSymbolTableRecord
100
AcDbBlockTableRecord
2
*D2
70
0
280
1
281
0
0
BLOCK_RECORD
5
96
330
1
100
AcDbSymbolTableRecord
100
AcDbBlockTableRecord
2
*D14
70
0
280
1
281
0
0
BLOCK_RECORD
5
99
330
1
100
AcDbSymbolTableRecord
100
AcDbBlockTableRecord
2
*D31
70
0
280
1
281
0
0
BLOCK_RECORD
5
9C
330
1
100
AcDbSymbolTableRecord
100
AcDbBlockTableRecord
2
*D12
70
0
280
1
281
0
0
BLOCK_RECORD
5
9F
330
1
100
AcDbSymbolTableRecord
100
AcDbBlockTableRecord
2
*D13
70
0
280
1
281
0
0
BLOCK_RECORD
5
A2
330
1
100
AcDbSymbolTableRecord
100
AcDbBlockTableRecord
2
*D28
70
0
280
1
281
0
0
BLOCK_RECORD
5
A5
330
1
100
AcDbSymbolTableRecord
100
AcDbBlockTableRecord
2
*D20
70
0
280
1
281
0
0
BLOCK_RECORD
5
A8
330
1
100
AcDbSymbolTableRecord
100
AcDbBlockTableRecord
2
*D21
70
0
280
1
281
0
0
BLOCK_RECORD
5
AB
330
1
100
AcDbSymbolTableRecord
100
AcDbBlockTableRecord
2
*D22
70
0
280
1
281
0
0
BLOCK_RECORD
5
AE
330
1
100
AcDbSymbolTableRecord
100
AcDbBlockTableRecord
2
*D10
70
0
280
1
281
0
0
ENDTAB
0
ENDSEC
0
SECTION
2
BLOCKS
0
BLOCK
5
20
330
1F
100
AcDbEntity
8
0
100
AcDbBlockBegin
2
*Model_Space
70
0
10
0
20
0
30
0
3
*Model_Space
1

0
ENDBLK
5
21
330
1F
100
AcDbEntity
8
0
100
AcDbBlockEnd
0
BLOCK
5
1C
330
1B
100
AcDbEntity
8
0
100
AcDbBlockBegin
2
*Paper_Space
70
0
10
0
20
0
30
0
3
*Paper_Space
1

0
ENDBLK
5
1D
330
1F
100
AcDbEntity
8
0
100
AcDbBlockEnd
0
BLOCK
5
4C
330
4B
100
AcDbEntity
8
0
100
AcDbBlockBegin
2
*D33
70
1
10
0
20
0
3
*D33
1

0
LINE
5
B1
100
AcDbEntity
8
Dim22
6
CONTINUOUS
62
7
370
0
100
AcDbLine
10
119.949818798
20
50.5
11
119.949818798
21
86.5
0
SOLID
5
B2
100
AcDbEntity
8
Dim22
6
CONTINUOUS
62
7
370
0
100
AcDbTrace
10
119.949818798
20
50.5
30
0
11
119.750002162
21
51.7
31
0
12
120.149635434
22
51.7
32
0
13
120.149635434
23
51.7
33
0
0
SOLID
5
B3
100
AcDbEntity
8
Dim22
6
CONTINUOUS
62
7
370
0
100
AcDbTrace
10
119.949818798
20
86.5
30
0
11
120.149635434
21
85.3
31
0
12
119.750002162
22
85.3
32
0
13
119.750002162
23
85.3
33
0
0
MTEXT
5
B4
100
AcDbEntity
8
Dim22
6
CONTINUOUS
62
7
370
0
100
AcDbMText
10
119.049818798
20
68.5
30
0
40
1.2
41
1.46666666667
71
5
72
1
1
36
7
standard
210
0
220
0
230
1
50
90
73
2
44
1
0
LINE
5
B5
100
AcDbEntity
8
Dim22
6
CONTINUOUS
62
7
370
0
100
AcDbLine
10
142.537834972
20
50.5
11
119.349818798
21
50.5
0
LINE
5
B6
100
AcDbEntity
8
Dim22
6
CONTINUOUS
62
7
370
0
100
AcDbLine
10
136.308666615
20
86.5
11
119.349818798
21
86.5
0
ENDBLK
5
4D
330
4B
100
AcDbEntity
8
0
100
AcDbBlockEnd
0
BLOCK
5
4F
330
4E
100
AcDbEntity
8
0
100
AcDbBlockBegin
2
*D34
70
1
10
0
20
0
3
*D34
1

0
LINE
5
B7
100
AcDbEntity
8
Dim2
6
CONTINUOUS
62
7
370
0
100
AcDbLine
10
150.5
20
97.0770956205
11
140.644828294
21
97.0770956205
0
SOLID
5
B8
100
AcDbEntity
8
Dim2
6
CONTINUOUS
62
7
370
0
100
AcDbTrace
10
150.5
20
97.0770956205
30
0
11
149.3
21
96.8772789848
31
0
12
149.3
22
97.2769122562
32
0
13
149.3
23
97.2769122562
33
0
0
SOLID
5
B9
100
AcDbEntity
8
Dim2
6
CONTINUOUS
62
7
370
0
100
AcDbTrace
10
140.644828294
20
97.0770956205
30
0
11
141.844828294
21
97.2769122562
31
0
12
141.844828294
22
96.8772789848
32
0
13
141.844828294
23
96.8772789848
33
0
0
MTEXT
5
BA
100
AcDbEntity
8
Dim2
6
CONTINUOUS
62
7
370
0
100
AcDbMText
10
145.572414147
20
97.9770956205
30
0
40
1.2
41
4.23333333333
71
5
72
1
1
9 7/8
7
standard
210
0
220
0
230
1
50
360
73
2
44
1
0
LINE
5
BB
100
AcDbEntity
8
Dim2
6
CONTINUOUS
62
7
370
0
100
AcDbLine
10
150.5
20
92.8
11
150.5
21
97.6770956205
0
LINE
5
BC
100
AcDbEntity
8
Dim2
6
CONTINUOUS
62
7
370
0
100
AcDbLine
10
140.644828294
20
92.7717815964
11
140.644828294
21
97.6770956205
0
ENDBLK
5
50
330
4E
100
AcDbEntity
8
0
100
AcDbBlockEnd
0
BLOCK
5
52
330
51
100
AcDbEntity
8
0
100
AcDbBlockBegin
2
*D4
70
1
10
0
20
0
3
*D4
1

0
LINE
5
BD
100
AcDbEntity
8
Dim
6
CONTINUOUS
62
7
370
0
100
AcDbLine
10
148.5
20
94.9984003678
11
198.5
21
94.9984003678
0
SOLID
5
BE
100
AcDbEntity
8
Dim
6
CONTINUOUS
62
7
370
0
100
AcDbTrace
10
148.5
20
94.9984003678
30
0
11
149.7
21
95.1982170035
31
0
12
149.7
22
94.7985837321
32
0
13
149.7
23
94.7985837321
33
0
0
SOLID
5
BF
100
AcDbEntity
8
Dim
6
CONTINUOUS
62
7
370
0
100
AcDbTrace
10
198.5
20
94.9984003678
30
0
11
197.3
21
94.7985837321
31
0
12
197.3
22
95.1982170035
32
0
13
197.3
23
95.1982170035
33
0
0
MTEXT
5
C0
100
AcDbEntity
8
Dim
6
CONTINUOUS
62
7
370
0
100
AcDbMText
10
173.5
20
95.8984003678
30
0
40
1.2
41
1.46666666667
71
5
72
1
1
50
7
standard
210
0
220
0
230
1
50
0
73
2
44
1
0
LINE
5
C1
100
AcDbEntity
8
Dim
6
CONTINUOUS
62
7
370
0
100
AcDbLine
10
148.5
20
92.8
11
148.5
21
95.5984003678
0
LINE
5
C2
100
AcDbEntity
8
Dim
6
CONTINUOUS
62
7
370
0
100
AcDbLine
10
198.5
20
57.8
11
198.5
21
95.5984003678
0
ENDBLK
5
53
330
51
100
AcDbEntity
8
0
100
AcDbBlockEnd
0
BLOCK
5
55
330
54
100
AcDbEntity
8
0
100
AcDbBlockBegin
2
*D25
70
1
10
0
20
0
3
*D25
1

0
LINE
5
C3
100
AcDbEntity
8
Dim22
6
CONTINUOUS
62
7
370
0
100
AcDbLine
10
187.865198919
20
50.2542304245
11
180.755403924
21
40.0973805145
0
LINE
5
C4
100
AcDbEntity
8
Dim22
6
CONTINUOUS
62
7
370
0
100
AcDbLine
10
136.436627911
20
86.2542304245
11
129.326832916
21
76.0973805145
0
LINE
5
C5
100
AcDbEntity
8
Dim22
6
CONTINUOUS
62
7
370
0
100
AcDbLine
10
181.099481332
20
40.5889196655
11
129.670910324
21
76.5889196655
0
SOLID
5
C6
100
AcDbEntity
8
Dim22
6
CONTINUOUS
62
7
370
0
100
AcDbTrace
10
181.099481332
20
40.5889196655
30
0
11
180.001815713
21
41.1133783167
31
0
12
180.230990347
22
41.4407706483
32
0
13
180.230990347
23
41.4407706483
33
0
0
SOLID
5
C7
100
AcDbEntity
8
Dim22
6
CONTINUOUS
62
7
370
0
100
AcDbTrace
10
129.670910324
20
76.5889196655
30
0
11
130.768575943
21
76.0644610143
31
0
12
130.539401309
22
75.7370686827
32
0
13
130.539401309
23
75.7370686827
33
0
0
MTEXT
5
C8
100
AcDbEntity
8
Dim22
6
CONTINUOUS
62
7
370
0
100
AcDbMText
10
155.901311941
20
59.3262283922
30
0
40
1.2
41
5.3
71
5
72
1
1
62 3/4
7
standard
210
0
220
0
230
1
50
325.007979581
73
2
44
1
0
ENDBLK
5
56
330
54
100
AcDbEntity
8
0
100
AcDbBlockEnd
0
BLOCK
5
58
330
57
100
AcDbEntity
8
0
100
AcDbBlockBegin
2
*D27
70
1
10
0
20
0
3
*D27
1

0
LINE
5
C9
100
AcDbEntity
8
Dim2
6
CONTINUOUS
62
7
370
0
100
AcDbLine
10
148.5
20
50.5
11
148.5
21
85.5
0
SOLID
5
CA
100
AcDbEntity
8
Dim2
6
CONTINUOUS
62
7
370
0
100
AcDbTrace
10
148.5
20
50.5
30
0
11
148.300183364
21
51.7
31
0
12
148.699816636
22
51.7
32
0
13
148.699816636
23
51.7
33
0
0
SOLID
5
CB
100
AcDbEntity
8
Dim2
6
CONTINUOUS
62
7
370
0
100
AcDbTrace
10
148.5
20
85.5
30
0
11
148.699816636
21
84.3
31
0
12
148.300183364
22
84.3
32
0
13
148.300183364
23
84.3
33
0
0
MTEXT
5
CC
100
AcDbEntity
8
Dim2
6
CONTINUOUS
62
7
370
0
100
AcDbMText
10
147.6
20
68
30
0
40
1.2
41
1.46666666667
71
5
72
1
1
35
7
standard
210
0
220
0
230
1
50
90
73
2
44
1
0
LINE
5
CD
100
AcDbEntity
8
Dim2
6
CONTINUOUS
62
7
370
0
100
AcDbLine
10
148.2
20
50.5
11
147.9
21
50.5
0
LINE
5
CE
100
AcDbEntity
8
Dim2
6
CONTINUOUS
62
7
370
0
100
AcDbLine
10
148.2
20
85.5
11
147.9
21
85.5
0
ENDBLK
5
59
330
57
100
AcDbEntity
8
0
100
AcDbBlockEnd
0
BLOCK
5
5B
330
5A
100
AcDbEntity
8
0
100
AcDbBlockBegin
2
*D5
70
1
10
0
20
0
3
*D5
1

0
LINE
5
CF
100
AcDbEntity
8
Dim
6
CONTINUOUS
62
7
370
0
100
AcDbLine
10
97.4040274187
20
92.5
11
97.4040274187
21
50.5
0
SOLID
5
D0
100
AcDbEntity
8
Dim
6
CONTINUOUS
62
7
370
0
100
AcDbTrace
10
97.4040274187
20
92.5
30
0
11
97.6038440544
21
91.3
31
0
12
97.204210783
22
91.3
32
0
13
97.204210783
23
91.3
33
0
0
SOLID
5
D1
100
AcDbEntity
8
Dim
6
CONTINUOUS
62
7
370
0
100
AcDbTrace
10
97.4040274187
20
50.5
30
0
11
97.204210783
21
51.7
31
0
12
97.6038440544
22
51.7
32
0
13
97.6038440544
23
51.7
33
0
0
MTEXT
5
D2
100
AcDbEntity
8
Dim
6
CONTINUOUS
62
7
370
0
100
AcDbMText
10
96.5040274187
20
71.5
30
0
40
1.2
41
1.6
71
5
72
1
1
42
7
standard
210
0
220
0
230
1
50
90
73
2
44
1
0
LINE
5
D3
100
AcDbEntity
8
Dim
6
CONTINUOUS
62
7
370
0
100
AcDbLine
10
100.2
20
92.5
11
96.8040274187
21
92.5
0
LINE
5
D4
100
AcDbEntity
8
Dim
6
CONTINUOUS
62
7
370
0
100
AcDbLine
10
100.2
20
50.5
11
96.8040274187
21
50.5
0
ENDBLK
5
5C
330
5A
100
AcDbEntity
8
0
100
AcDbBlockEnd
0
BLOCK
5
5E
330
5D
100
AcDbEntity
8
0
100
AcDbBlockBegin
2
*D7
70
1
10
0
20
0
3
*D7
1

0
LINE
5
D5
100
AcDbEntity
8
Dim
6
CONTINUOUS
62
7
370
0
100
AcDbLine
10
168.254230424
20
78.6720387033
11
167.169611692
21
79.4312718158
0
LINE
5
D6
100
AcDbEntity
8
Dim
6
CONTINUOUS
62
7
370
0
100
AcDbLine
10
161.524865754
20
69.058660603
11
160.440247022
21
69.8178937155
0
LINE
5
D7
100
AcDbEntity
8
Dim
6
CONTINUOUS
62
7
370
0
100
AcDbLine
10
167.661150844
20
79.0871944092
11
160.931786174
21
69.4738163089
0
SOLID
5
D8
100
AcDbEntity
8
Dim
6
CONTINUOUS
62
7
370
0
100
AcDbTrace
10
167.661150844
20
79.0871944092
30
0
11
167.136692197
21
77.9895287882
31
0
12
166.809299865
22
78.2187034209
32
0
13
166.809299865
23
78.2187034209
33
0
0
SOLID
5
D9
100
AcDbEntity
8
Dim
6
CONTINUOUS
62
7
370
0
100
AcDbTrace
10
160.931786174
20
69.4738163089
30
0
11
161.456244821
21
70.5714819299
31
0
12
161.783637153
22
70.3423072972
32
0
13
161.783637153
23
70.3423072972
33
0
0
MTEXT
5
DA
100
AcDbEntity
8
Dim
6
CONTINUOUS
62
7
370
0
100
AcDbMText
10
163.559159781
20
74.7966214689
30
0
40
1.2
41
4.76666666667
71
5
72
1
1
11 3/4
7
standard
210
0
220
0
230
1
50
55.0079798023
73
2
44
1
0
ENDBLK
5
5F
330
5D
100
AcDbEntity
8
0
100
AcDbBlockEnd
0
BLOCK
5
61
330
60
100
AcDbEntity
8
0
100
AcDbBlockBegin
2
*D3
70
1
10
0
20
0
3
*D3
1

0
LINE
5
DB
100
AcDbEntity
8
Dim
6
CONTINUOUS
62
7
370
0
100
AcDbLine
10
160.8
20
78.5
11
164.6
21
78.5
0
LINE
5
DC
100
AcDbEntity
8
Dim
6
CONTINUOUS
62
7
370
0
100
AcDbLine
10
160.8
20
85.5
11
164.6
21
85.5
0
LINE
5
DD
100
AcDbEntity
8
Dim
6
CONTINUOUS
62
7
370
0
100
AcDbLine
10
164
20
78.5
11
164
21
85.5
0
SOLID
5
DE
100
AcDbEntity
8
Dim
6
CONTINUOUS
62
7
370
0
100
AcDbTrace
10
164
20
78.5
30
0
11
163.800183364
21
79.7
31
0
12
164.199816636
22
79.7
32
0
13
164.199816636
23
79.7
33
0
0
SOLID
5
DF
100
AcDbEntity
8
Dim
6
CONTINUOUS
62
7
370
0
100
AcDbTrace
10
164
20
85.5
30
0
11
164.199816636
21
84.3
31
0
12
163.800183364
22
84.3
32
0
13
163.800183364
23
84.3
33
0
0
MTEXT
5
E0
100
AcDbEntity
8
Dim
6
CONTINUOUS
62
7
370
0
100
AcDbMText
10
163.1
20
82
30
0
40
1.2
41
0.533333333333
71
5
72
1
1
7
7
standard
210
0
220
0
230
1
50
90
73
2
44
1
0
ENDBLK
5
62
330
60
100
AcDbEntity
8
0
100
AcDbBlockEnd
0
BLOCK
5
64
330
63
100
AcDbEntity
8
0
100
AcDbBlockBegin
2
*D9
70
1
10
0
20
0
3
*D9
1

0
LINE
5
E1
100
AcDbEntity
8
Dim
6
CONTINUOUS
62
7
370
0
100
AcDbLine
10
156.1
20
88.7979856009
11
162.9
21
88.7979856009
0
SOLID
5
E2
100
AcDbEntity
8
Dim
6
CONTINUOUS
62
7
370
0
100
AcDbTrace
10
158.5
20
88.7979856009
30
0
11
157.3
21
88.5981689652
31
0
12
157.3
22
88.9978022366
32
0
13
157.3
23
88.9978022366
33
0
0
SOLID
5
E3
100
AcDbEntity
8
Dim
6
CONTINUOUS
62
7
370
0
100
AcDbTrace
10
160.5
20
88.7979856009
30
0
11
161.7
21
88.9978022366
31
0
12
161.7
22
88.5981689652
32
0
13
161.7
23
88.5981689652
33
0
0
MTEXT
5
E4
100
AcDbEntity
8
Dim
6
CONTINUOUS
62
7
370
0
100
AcDbMText
10
159.5
20
89.6979856009
30
0
40
1.2
41
0.533333333333
71
5
72
1
1
2
7
standard
210
0
220
0
230
1
50
0
73
2
44
1
0
LINE
5
E5
100
AcDbEntity
8
Dim
6
CONTINUOUS
62
7
370
0
100
AcDbLine
10
158.5
20
85.8
11
158.5
21
89.3979856009
0
LINE
5
E6
100
AcDbEntity
8
Dim
6
CONTINUOUS
62
7
370
0
100
AcDbLine
10
160.5
20
85.8
11
160.5
21
89.3979856009
0
ENDBLK
5
65
330
63
100
AcDbEntity
8
0
100
AcDbBlockEnd
0
BLOCK
5
67
330
66
100
AcDbEntity
8
0
100
AcDbBlockBegin
2
*D26
70
1
10
0
20
0
3
*D26
1

0
LINE
5
E7
100
AcDbEntity
8
Dim2
6
CONTINUOUS
62
7
370
0
100
AcDbLine
10
125.209772191
20
80.5846084773
11
125.209772191
21
50.5
0
SOLID
5
E8
100
AcDbEntity
8
Dim2
6
CONTINUOUS
62
7
370
0
100
AcDbTrace
10
125.209772191
20
80.5846084773
30
0
11
125.409588827
21
79.3846084773
31
0
12
125.009955555
22
79.3846084773
32
0
13
125.009955555
23
79.3846084773
33
0
0
SOLID
5
E9
100
AcDbEntity
8
Dim2
6
CONTINUOUS
62
7
370
0
100
AcDbTrace
10
125.209772191
20
50.5
30
0
11
125.009955555
21
51.7
31
0
12
125.409588827
22
51.7
32
0
13
125.409588827
23
51.7
33
0
0
MTEXT
5
EA
100
AcDbEntity
8
Dim2
6
CONTINUOUS
62
7
370
0
100
AcDbMText
10
124.309772191
20
65.5423042386
30
0
40
1.2
41
5.56666666667
71
5
72
1
1
30 1/16
7
standard
210
0
220
0
230
1
50
90
73
2
44
1
0
LINE
5
EB
100
AcDbEntity
8
Dim2
6
CONTINUOUS
62
7
370
0
100
AcDbLine
10
128.884225933
20
80.5846084773
11
124.609772191
21
80.5846084773
0
LINE
5
EC
100
AcDbEntity
8
Dim2
6
CONTINUOUS
62
7
370
0
100
AcDbLine
10
129.227300171
20
50.5
11
124.609772191
21
50.5
0
ENDBLK
5
68
330
66
100
AcDbEntity
8
0
100
AcDbBlockEnd
0
BLOCK
5
6A
330
69
100
AcDbEntity
8
0
100
AcDbBlockBegin
2
*D11
70
1
10
0
20
0
3
*D11
1

0
LINE
5
ED
100
AcDbEntity
8
Dim
6
CONTINUOUS
62
7
370
0
100
AcDbLine
10
148.692957626
20
92.7297114594
11
162.548533762
21
109.224444955
0
LINE
5
EE
100
AcDbEntity
8
Dim
6
CONTINUOUS
62
7
370
0
100
AcDbLine
10
198.692957626
20
50.7297114594
11
212.548533762
21
67.2244449546
0
LINE
5
EF
100
AcDbEntity
8
Dim
6
CONTINUOUS
62
7
370
0
100
AcDbLine
10
162.16261851
20
108.765022036
11
212.16261851
21
66.7650220358
0
SOLID
5
F0
100
AcDbEntity
8
Dim
6
CONTINUOUS
62
7
370
0
100
AcDbTrace
10
162.16261851
20
108.765022036
30
0
11
163.209984827
21
108.146192102
31
0
12
162.952943869
22
107.840190962
32
0
13
162.952943869
23
107.840190962
33
0
0
SOLID
5
F1
100
AcDbEntity
8
Dim
6
CONTINUOUS
62
7
370
0
100
AcDbTrace
10
212.16261851
20
66.7650220358
30
0
11
211.115252193
21
67.3838519694
31
0
12
211.372293151
22
67.6898531095
32
0
13
211.372293151
23
67.6898531095
33
0
0
MTEXT
5
F2
100
AcDbEntity
8
Dim
6
CONTINUOUS
62
7
370
0
100
AcDbMText
10
187.741491388
20
88.4541564144
30
0
40
1.2
41
5.83333333333
71
5
72
1
1
65 5/16
7
standard
210
0
220
0
230
1
50
319.969740728
73
2
44
1
0
ENDBLK
5
6B
330
69
100
AcDbEntity
8
0
100
AcDbBlockEnd
0
BLOCK
5
6D
330
6C
100
AcDbEntity
8
0
100
AcDbBlockBegin
2
*D8
70
1
10
0
20
0
3
*D8
1

0
LINE
5
F3
100
AcDbEntity
8
Dim
6
CONTINUOUS
62
7
370
0
100
AcDbLine
10
170.672038703
20
78.7457695762
11
172.925609345
21
81.9651562066
0
LINE
5
F4
100
AcDbEntity
8
Dim
6
CONTINUOUS
62
7
370
0
100
AcDbLine
10
180.672038703
20
71.7457695762
11
182.925609345
21
74.9651562066
0
LINE
5
F5
100
AcDbEntity
8
Dim
6
CONTINUOUS
62
7
370
0
100
AcDbLine
10
172.581531938
20
81.4736170543
11
182.581531938
21
74.4736170543
0
SOLID
5
F6
100
AcDbEntity
8
Dim
6
CONTINUOUS
62
7
370
0
100
AcDbTrace
10
172.581531938
20
81.4736170543
30
0
11
173.679197559
21
80.9491584073
31
0
12
173.450022926
22
80.6217660748
32
0
13
173.450022926
23
80.6217660748
33
0
0
SOLID
5
F7
100
AcDbEntity
8
Dim
6
CONTINUOUS
62
7
370
0
100
AcDbTrace
10
182.581531938
20
74.4736170543
30
0
11
181.483866317
21
74.9980757013
31
0
12
181.71304095
22
75.3254680338
32
0
13
181.71304095
23
75.3254680338
33
0
0
MTEXT
5
F8
100
AcDbEntity
8
Dim
6
CONTINUOUS
62
7
370
0
100
AcDbMText
10
178.097648048
20
78.7109257828
30
0
40
1.2
41
5.56666666667
71
5
72
1
1
12 3/16
7
standard
210
0
220
0
230
1
50
325.007979801
73
2
44
1
0
ENDBLK
5
6E
330
6C
100
AcDbEntity
8
0
100
AcDbBlockEnd
0
BLOCK
5
70
330
6F
100
AcDbEntity
8
0
100
AcDbBlockBegin
2
*D30
70
1
10
0
20
0
3
*D30
1

0
LINE
5
F9
100
AcDbEntity
8
Dim22
6
CONTINUOUS
62
7
370
0
100
AcDbLine
10
100.5
20
96.2003559281
11
148.5
21
96.2003559281
0
SOLID
5
FA
100
AcDbEntity
8
Dim22
6
CONTINUOUS
62
7
370
0
100
AcDbTrace
10
100.5
20
96.2003559281
30
0
11
101.7
21
96.4001725638
31
0
12
101.7
22
96.0005392924
32
0
13
101.7
23
96.0005392924
33
0
0
SOLID
5
FB
100
AcDbEntity
8
Dim22
6
CONTINUOUS
62
7
370
0
100
AcDbTrace
10
148.5
20
96.2003559281
30
0
11
147.3
21
96.0005392924
31
0
12
147.3
22
96.4001725638
32
0
13
147.3
23
96.4001725638
33
0
0
MTEXT
5
FC
100
AcDbEntity
8
Dim22
6
CONTINUOUS
62
7
370
0
100
AcDbMText
10
124.5
20
97.1003559281
30
0
40
1.2
41
1.6
71
5
72
1
1
48
7
standard
210
0
220
0
230
1
50
0
73
2
44
1
0
LINE
5
FD
100
AcDbEntity
8
Dim22
6
CONTINUOUS
62
7
370
0
100
AcDbLine
10
100.5
20
92.8
11
100.5
21
96.8003559281
0
LINE
5
FE
100
AcDbEntity
8
Dim22
6
CONTINUOUS
62
7
370
0
100
AcDbLine
10
148.5
20
92.8
11
148.5
21
96.8003559281
0
ENDBLK
5
71
330
6F
100
AcDbEntity
8
0
100
AcDbBlockEnd
0
BLOCK
5
73
330
72
100
AcDbEntity
8
0
100
AcDbBlockBegin
2
*D15
70
1
10
0
20
0
3
*D15
1

0
LINE
5
FF
100
AcDbEntity
8
Dim
6
CONTINUOUS
62
7
370
0
100
AcDbLine
10
154.951269319
20
70.8526703159
11
152.402992432
21
67.2122747641
0
LINE
5
100
100
AcDbEntity
8
Dim
6
CONTINUOUS
62
7
370
0
100
AcDbLine
10
164.782052365
20
63.9711221835
11
162.233775478
21
60.3307266317
0
LINE
5
101
100
AcDbEntity
8
Dim
6
CONTINUOUS
62
7
370
0
100
AcDbLine
10
152.747069839
20
67.7038139164
11
162.577852885
21
60.822265784
0
SOLID
5
102
100
AcDbEntity
8
Dim
6
CONTINUOUS
62
7
370
0
100
AcDbTrace
10
152.747069839
20
67.7038139164
30
0
11
153.84473546
21
67.1793552694
31
0
12
153.615560827
22
66.8519629369
32
0
13
153.615560827
23
66.8519629369
33
0
0
SOLID
5
103
100
AcDbEntity
8
Dim
6
CONTINUOUS
62
7
370
0
100
AcDbTrace
10
162.577852885
20
60.822265784
30
0
11
161.480187264
21
61.346724431
31
0
12
161.709361897
22
61.6741167635
32
0
13
161.709361897
23
61.6741167635
33
0
0
MTEXT
5
104
100
AcDbEntity
8
Dim
6
CONTINUOUS
62
7
370
0
100
AcDbMText
10
158.178577471
20
65.0003485782
30
0
40
1.2
41
1.2
71
5
72
1
1
12
7
standard
210
0
220
0
230
1
50
325.007979801
73
2
44
1
0
ENDBLK
5
74
330
72
100
AcDbEntity
8
0
100
AcDbBlockEnd
0
BLOCK
5
76
330
75
100
AcDbEntity
8
0
100
AcDbBlockBegin
2
*D23
70
1
10
0
20
0
3
*D23
1

0
LINE
5
105
100
AcDbEntity
8
Dim2
6
CONTINUOUS
62
7
370
0
100
AcDbLine
10
125.209483814
20
80.5846084773
11
125.209483814
21
86.5
0
SOLID
5
106
100
AcDbEntity
8
Dim2
6
CONTINUOUS
62
7
370
0
100
AcDbTrace
10
125.209483814
20
80.5846084773
30
0
11
125.009667178
21
81.7846084773
31
0
12
125.40930045
22
81.7846084773
32
0
13
125.40930045
23
81.7846084773
33
0
0
SOLID
5
107
100
AcDbEntity
8
Dim2
6
CONTINUOUS
62
7
370
0
100
AcDbTrace
10
125.209483814
20
86.5
30
0
11
125.40930045
21
85.3
31
0
12
125.009667178
22
85.3
32
0
13
125.009667178
23
85.3
33
0
0
MTEXT
5
108
100
AcDbEntity
8
Dim2
6
CONTINUOUS
62
7
370
0
100
AcDbMText
10
124.309483814
20
83.5423042386
30
0
40
1.2
41
5.56666666667
71
5
72
1
1
5 15/16
7
standard
210
0
220
0
230
1
50
90
73
2
44
1
0
LINE
5
109
100
AcDbEntity
8
Dim2
6
CONTINUOUS
62
7
370
0
100
AcDbLine
10
128.884225933
20
80.5846084773
11
124.609483814
21
80.5846084773
0
LINE
5
10A
100
AcDbEntity
8
Dim2
6
CONTINUOUS
62
7
370
0
100
AcDbLine
10
144.759225933
20
86.5
11
124.609483814
21
86.5
0
ENDBLK
5
77
330
75
100
AcDbEntity
8
0
100
AcDbBlockEnd
0
BLOCK
5
79
330
78
100
AcDbEntity
8
0
100
AcDbBlockBegin
2
*D32
70
1
10
0
20
0
3
*D32
1

0
LINE
5
10B
100
AcDbEntity
8
Dim22
6
CONTINUOUS
62
7
370
0
100
AcDbLine
10
150.5
20
87.7828247844
11
160.5
21
87.7828247844
0
SOLID
5
10C
100
AcDbEntity
8
Dim22
6
CONTINUOUS
62
7
370
0
100
AcDbTrace
10
150.5
20
87.7828247844
30
0
11
151.7
21
87.9826414201
31
0
12
151.7
22
87.5830081487
32
0
13
151.7
23
87.5830081487
33
0
0
SOLID
5
10D
100
AcDbEntity
8
Dim22
6
CONTINUOUS
62
7
370
0
100
AcDbTrace
10
160.5
20
87.7828247844
30
0
11
159.3
21
87.5830081487
31
0
12
159.3
22
87.9826414201
32
0
13
159.3
23
87.9826414201
33
0
0
MTEXT
5
10E
100
AcDbEntity
8
Dim22
6
CONTINUOUS
62
7
370
0
100
AcDbMText
10
155.5
20
88.6828247844
30
0
40
1.2
41
1.2
71
5
72
1
1
10
7
standard
210
0
220
0
230
1
50
0
73
2
44
1
0
LINE
5
10F
100
AcDbEntity
8
Dim22
6
CONTINUOUS
62
7
370
0
100
AcDbLine
10
150.5
20
85.8
11
150.5
21
88.3828247844
0
LINE
5
110
100
AcDbEntity
8
Dim22
6
CONTINUOUS
62
7
370
0
100
AcDbLine
10
160.5
20
85.8
11
160.5
21
88.3828247844
0
ENDBLK
5
7A
330
78
100
AcDbEntity
8
0
100
AcDbBlockEnd
0
BLOCK
5
7C
330
7B
100
AcDbEntity
8
0
100
AcDbBlockBegin
2
*D16
70
1
10
0
20
0
3
*D16
1

0
LINE
5
111
100
AcDbEntity
8
Dim
6
CONTINUOUS
62
7
370
0
100
AcDbLine
10
156.516002287
20
72.5648650293
11
158.464375277
21
71.2010039356
0
LINE
5
112
100
AcDbEntity
8
Dim
6
CONTINUOUS
62
7
370
0
100
AcDbLine
10
155.369077598
20
70.9264011887
11
157.317450588
21
69.562540095
0
LINE
5
113
100
AcDbEntity
8
Dim
6
CONTINUOUS
62
7
370
0
100
AcDbLine
10
159.349145752
20
73.5112379512
11
155.449601809
21
67.9404608928
0
SOLID
5
114
100
AcDbEntity
8
Dim
6
CONTINUOUS
62
7
370
0
100
AcDbTrace
10
157.972836125
20
71.5450813423
30
0
11
158.497294772
21
72.6427469632
31
0
12
158.824687105
22
72.4135723303
32
0
13
158.824687105
23
72.4135723303
33
0
0
SOLID
5
115
100
AcDbEntity
8
Dim
6
CONTINUOUS
62
7
370
0
100
AcDbTrace
10
156.825911436
20
69.9066175017
30
0
11
156.301452789
21
68.8089518808
31
0
12
155.974060456
22
69.0381265136
32
0
13
155.974060456
23
69.0381265136
33
0
0
MTEXT
5
116
100
AcDbEntity
8
Dim
6
CONTINUOUS
62
7
370
0
100
AcDbMText
10
156.662065052
20
71.2419655326
30
0
40
1.2
41
0.533333333333
71
5
72
1
1
2
7
standard
210
0
220
0
230
1
50
55.0079797878
73
2
44
1
0
ENDBLK
5
7D
330
7B
100
AcDbEntity
8
0
100
AcDbBlockEnd
0
BLOCK
5
7F
330
7E
100
AcDbEntity
8
0
100
AcDbBlockBegin
2
*D18
70
1
10
0
20
0
3
*D18
1

0
LINE
5
117
100
AcDbEntity
8
Dim2
6
CONTINUOUS
62
7
370
0
100
AcDbLine
10
148.672038703
20
85.7457695762
11
157.015323351
21
97.6647476436
0
LINE
5
118
100
AcDbEntity
8
Dim2
6
CONTINUOUS
62
7
370
0
100
AcDbLine
10
198.672038703
20
50.7457695762
11
207.015323351
21
62.6647476436
0
LINE
5
119
100
AcDbEntity
8
Dim2
6
CONTINUOUS
62
7
370
0
100
AcDbLine
10
156.671245944
20
97.1732084913
11
206.671245944
21
62.1732084913
0
SOLID
5
11A
100
AcDbEntity
8
Dim2
6
CONTINUOUS
62
7
370
0
100
AcDbTrace
10
156.671245944
20
97.1732084913
30
0
11
157.768911565
21
96.6487498443
31
0
12
157.539736932
22
96.3213575118
32
0
13
157.539736932
23
96.3213575118
33
0
0
SOLID
5
11B
100
AcDbEntity
8
Dim2
6
CONTINUOUS
62
7
370
0
100
AcDbTrace
10
206.671245944
20
62.1732084913
30
0
11
205.573580323
21
62.6976671383
31
0
12
205.802754956
22
63.0250594708
32
0
13
205.802754956
23
63.0250594708
33
0
0
MTEXT
5
11C
100
AcDbEntity
8
Dim2
6
CONTINUOUS
62
7
370
0
100
AcDbMText
10
182.187362053
20
80.4105172192
30
0
40
1.2
41
5.3
71
5
72
1
1
61 1/16
7
standard
210
0
220
0
230
1
50
325.007979801
73
2
44
1
0
ENDBLK
5
80
330
7E
100
AcDbEntity
8
0
100
AcDbBlockEnd
0
BLOCK
5
82
330
81
100
AcDbEntity
8
0
100
AcDbBlockBegin
2
*D6
70
1
10
0
20
0
3
*D6
1

0
LINE
5
11D
100
AcDbEntity
8
Dim
6
CONTINUOUS
62
7
370
0
100
AcDbLine
10
136.608666615
20
88.303146069
11
148.5
21
88.303146069
0
SOLID
5
11E
100
AcDbEntity
8
Dim
6
CONTINUOUS
62
7
370
0
100
AcDbTrace
10
136.608666615
20
88.303146069
30
0
11
137.808666615
21
88.5029627047
31
0
12
137.808666615
22
88.1033294333
32
0
13
137.808666615
23
88.1033294333
33
0
0
SOLID
5
11F
100
AcDbEntity
8
Dim
6
CONTINUOUS
62
7
370
0
100
AcDbTrace
10
148.5
20
88.303146069
30
0
11
147.3
21
88.1033294333
31
0
12
147.3
22
88.5029627047
32
0
13
147.3
23
88.5029627047
33
0
0
MTEXT
5
120
100
AcDbEntity
8
Dim
6
CONTINUOUS
62
7
370
0
100
AcDbMText
10
142.554333308
20
89.203146069
30
0
40
1.2
41
4.63333333333
71
5
72
1
1
11 7/8
7
standard
210
0
220
0
230
1
50
0
73
2
44
1
0
LINE
5
121
100
AcDbEntity
8
Dim
6
CONTINUOUS
62
7
370
0
100
AcDbLine
10
136.608666615
20
86.8
11
136.608666615
21
88.903146069
0
LINE
5
122
100
AcDbEntity
8
Dim
6
CONTINUOUS
62
7
370
0
100
AcDbLine
10
148.5
20
86.8
11
148.5
21
88.903146069
0
ENDBLK
5
83
330
81
100
AcDbEntity
8
0
100
AcDbBlockEnd
0
BLOCK
5
85
330
84
100
AcDbEntity
8
0
100
AcDbBlockBegin
2
*D29
70
1
10
0
20
0
3
*D29
1

0
LINE
5
123
100
AcDbEntity
8
Dim22
6
CONTINUOUS
62
7
370
0
100
AcDbLine
10
112.935209511
20
86.5
11
112.935209511
21
92.5
0
SOLID
5
124
100
AcDbEntity
8
Dim22
6
CONTINUOUS
62
7
370
0
100
AcDbTrace
10
112.935209511
20
86.5
30
0
11
112.735392875
21
87.7
31
0
12
113.135026147
22
87.7
32
0
13
113.135026147
23
87.7
33
0
0
SOLID
5
125
100
AcDbEntity
8
Dim22
6
CONTINUOUS
62
7
370
0
100
AcDbTrace
10
112.935209511
20
92.5
30
0
11
113.135026147
21
91.3
31
0
12
112.735392875
22
91.3
32
0
13
112.735392875
23
91.3
33
0
0
MTEXT
5
126
100
AcDbEntity
8
Dim22
6
CONTINUOUS
62
7
370
0
100
AcDbMText
10
112.035209511
20
89.5
30
0
40
1.2
41
0.533333333333
71
5
72
1
1
6
7
standard
210
0
220
0
230
1
50
90
73
2
44
1
0
LINE
5
127
100
AcDbEntity
8
Dim22
6
CONTINUOUS
62
7
370
0
100
AcDbLine
10
100.8
20
86.5
11
113.535209511
21
86.5
0
LINE
5
128
100
AcDbEntity
8
Dim22
6
CONTINUOUS
62
7
370
0
100
AcDbLine
10
100.8
20
92.5
11
113.535209511
21
92.5
0
ENDBLK
5
86
330
84
100
AcDbEntity
8
0
100
AcDbBlockEnd
0
BLOCK
5
88
330
87
100
AcDbEntity
8
0
100
AcDbBlockBegin
2
*D24
70
1
10
0
20
0
3
*D24
1

0
LINE
5
129
100
AcDbEntity
8
Dim
6
CONTINUOUS
62
7
370
0
100
AcDbLine
10
136.436627912
20
86.2542304238
11
126.539149093
21
72.114974969
0
LINE
5
12A
100
AcDbEntity
8
Dim
6
CONTINUOUS
62
7
370
0
100
AcDbLine
10
196.22946911
20
44.3992415852
11
186.331990291
21
30.2599861304
0
LINE
5
12B
100
AcDbEntity
8
Dim
6
CONTINUOUS
62
7
370
0
100
AcDbLine
10
126.8832265
20
72.6065141213
11
186.676067698
21
30.7515252827
0
SOLID
5
12C
100
AcDbEntity
8
Dim
6
CONTINUOUS
62
7
370
0
100
AcDbTrace
10
126.8832265
20
72.6065141213
30
0
11
127.980892121
21
72.0820554743
31
0
12
127.751717488
22
71.7546631419
32
0
13
127.751717488
23
71.7546631419
33
0
0
SOLID
5
12D
100
AcDbEntity
8
Dim
6
CONTINUOUS
62
7
370
0
100
AcDbTrace
10
186.676067698
20
30.7515252827
30
0
11
185.578402077
21
31.2759839297
31
0
12
185.80757671
22
31.6033762622
32
0
13
185.80757671
23
31.6033762622
33
0
0
MTEXT
5
12E
100
AcDbEntity
8
Dim
6
CONTINUOUS
62
7
370
0
100
AcDbMText
10
157.295763209
20
52.4163284304
30
0
40
1.2
41
1.46666666667
71
5
72
1
1
73
7
standard
210
0
220
0
230
1
50
325.007979801
73
2
44
1
0
ENDBLK
5
89
330
87
100
AcDbEntity
8
0
100
AcDbBlockEnd
0
BLOCK
5
8B
330
8A
100
AcDbEntity
8
0
100
AcDbBlockBegin
2
*D19
70
1
10
0
20
0
3
*D19
1

0
LINE
5
12F
100
AcDbEntity
8
Dim2
6
CONTINUOUS
62
7
370
0
100
AcDbLine
10
140.221479385
20
91.6611610989
11
148.563321093
21
103.578077824
0
LINE
5
130
100
AcDbEntity
8
Dim2
6
CONTINUOUS
62
7
370
0
100
AcDbLine
10
148.672038703
20
85.7457695762
11
157.013880411
21
97.6626863008
0
LINE
5
131
100
AcDbEntity
8
Dim2
6
CONTINUOUS
62
7
370
0
100
AcDbLine
10
148.219243686
20
103.086538671
11
156.669803004
21
97.1711471485
0
SOLID
5
132
100
AcDbEntity
8
Dim2
6
CONTINUOUS
62
7
370
0
100
AcDbTrace
10
148.219243686
20
103.086538671
30
0
11
149.316909307
21
102.562080024
31
0
12
149.087734674
22
102.234687692
32
0
13
149.087734674
23
102.234687692
33
0
0
SOLID
5
133
100
AcDbEntity
8
Dim2
6
CONTINUOUS
62
7
370
0
100
AcDbTrace
10
156.669803004
20
97.1711471485
30
0
11
155.572137383
21
97.6956057955
31
0
12
155.801312016
22
98.022998128
32
0
13
155.801312016
23
98.022998128
33
0
0
MTEXT
5
134
100
AcDbEntity
8
Dim2
6
CONTINUOUS
62
7
370
0
100
AcDbMText
10
152.960639455
20
100.866151639
30
0
40
1.2
41
5.56666666667
71
5
72
1
1
10 5/16
7
standard
210
0
220
0
230
1
50
325.007979801
73
2
44
1
0
ENDBLK
5
8C
330
8A
100
AcDbEntity
8
0
100
AcDbBlockEnd
0
BLOCK
5
8E
330
8D
100
AcDbEntity
8
0
100
AcDbBlockBegin
2
*D1
70
1
10
0
20
0
3
*D1
1

0
LINE
5
135
100
AcDbEntity
8
Dim
6
CONTINUOUS
62
7
370
0
100
AcDbLine
10
100.5
20
92.8
11
100.5
21
95.6
0
LINE
5
136
100
AcDbEntity
8
Dim
6
CONTINUOUS
62
7
370
0
100
AcDbLine
10
148.5
20
92.8
11
148.5
21
95.6
0
LINE
5
137
100
AcDbEntity
8
Dim
6
CONTINUOUS
62
7
370
0
100
AcDbLine
10
100.5
20
95
11
148.5
21
95
0
SOLID
5
138
100
AcDbEntity
8
Dim
6
CONTINUOUS
62
7
370
0
100
AcDbTrace
10
100.5
20
95
30
0
11
101.7
21
95.1998166357
31
0
12
101.7
22
94.8001833643
32
0
13
101.7
23
94.8001833643
33
0
0
SOLID
5
139
100
AcDbEntity
8
Dim
6
CONTINUOUS
62
7
370
0
100
AcDbTrace
10
148.5
20
95
30
0
11
147.3
21
94.8001833643
31
0
12
147.3
22
95.1998166357
32
0
13
147.3
23
95.1998166357
33
0
0
MTEXT
5
13A
100
AcDbEntity
8
Dim
6
CONTINUOUS
62
7
370
0
100
AcDbMText
10
124.5
20
95.9
30
0
40
1.2
41
1.6
71
5
72
1
1
48
7
standard
210
0
220
0
230
1
50
0
73
2
44
1
0
ENDBLK
5
8F
330
8D
100
AcDbEntity
8
0
100
AcDbBlockEnd
0
BLOCK
5
91
330
90
100
AcDbEntity
8
0
100
AcDbBlockBegin
2
*D17
70
1
10
0
20
0
3
*D17
1

0
LINE
5
13B
100
AcDbEntity
8
Dim
6
CONTINUOUS
62
7
370
0
100
AcDbLine
10
217.666320392
20
50.5
11
217.666320392
21
92.4997775273
0
SOLID
5
13C
100
AcDbEntity
8
Dim
6
CONTINUOUS
62
7
370
0
100
AcDbTrace
10
217.666320392
20
50.5
30
0
11
217.466503756
21
51.7
31
0
12
217.866137028
22
51.7
32
0
13
217.866137028
23
51.7
33
0
0
SOLID
5
13D
100
AcDbEntity
8
Dim
6
CONTINUOUS
62
7
370
0
100
AcDbTrace
10
217.666320392
20
92.4997775273
30
0
11
217.866137028
21
91.2997775273
31
0
12
217.466503756
22
91.2997775273
32
0
13
217.466503756
23
91.2997775273
33
0
0
MTEXT
5
13E
100
AcDbEntity
8
Dim
6
CONTINUOUS
62
7
370
0
100
AcDbMText
10
216.766320392
20
71.4998887637
30
0
40
1.2
41
1.6
71
5
72
1
1
42
7
standard
210
0
220
0
230
1
50
90
73
2
44
1
0
LINE
5
13F
100
AcDbEntity
8
Dim
6
CONTINUOUS
62
7
370
0
100
AcDbLine
10
200.8
20
50.5
11
218.266320392
21
50.5
0
LINE
5
140
100
AcDbEntity
8
Dim
6
CONTINUOUS
62
7
370
0
100
AcDbLine
10
216.300451903
20
92.4997775273
11
218.266320392
21
92.4997775273
0
ENDBLK
5
92
330
90
100
AcDbEntity
8
0
100
AcDbBlockEnd
0
BLOCK
5
94
330
93
100
AcDbEntity
8
0
100
AcDbBlockBegin
2
*D2
70
1
10
0
20
0
3
*D2
1

0
LINE
5
141
100
AcDbEntity
8
Dim
6
CONTINUOUS
62
7
370
0
100
AcDbLine
10
119
20
86.5
11
119
21
92.5
0
SOLID
5
142
100
AcDbEntity
8
Dim
6
CONTINUOUS
62
7
370
0
100
AcDbTrace
10
119
20
86.5
30
0
11
118.800183364
21
87.7
31
0
12
119.199816636
22
87.7
32
0
13
119.199816636
23
87.7
33
0
0
SOLID
5
143
100
AcDbEntity
8
Dim
6
CONTINUOUS
62
7
370
0
100
AcDbTrace
10
119
20
92.5
30
0
11
119.199816636
21
91.3
31
0
12
118.800183364
22
91.3
32
0
13
118.800183364
23
91.3
33
0
0
MTEXT
5
144
100
AcDbEntity
8
Dim
6
CONTINUOUS
62
7
370
0
100
AcDbMText
10
118.1
20
89.5
30
0
40
1.2
41
0.533333333333
71
5
72
1
1
6
7
standard
210
0
220
0
230
1
50
90
73
2
44
1
0
LINE
5
145
100
AcDbEntity
8
Dim
6
CONTINUOUS
62
7
370
0
100
AcDbLine
10
117.524568138
20
86.5
11
119.6
21
86.5
0
LINE
5
146
100
AcDbEntity
8
Dim
6
CONTINUOUS
62
7
370
0
100
AcDbLine
10
117.823992322
20
92.5
11
119.6
21
92.5
0
ENDBLK
5
95
330
93
100
AcDbEntity
8
0
100
AcDbBlockEnd
0
BLOCK
5
97
330
96
100
AcDbEntity
8
0
100
AcDbBlockBegin
2
*D14
70
1
10
0
20
0
3
*D14
1

0
LINE
5
147
100
AcDbEntity
8
Dim
6
CONTINUOUS
62
7
370
0
100
AcDbLine
10
178.5
20
64.2
11
178.5
21
60.4
0
LINE
5
148
100
AcDbEntity
8
Dim
6
CONTINUOUS
62
7
370
0
100
AcDbLine
10
188.5
20
64.2
11
188.5
21
60.4
0
LINE
5
149
100
AcDbEntity
8
Dim
6
CONTINUOUS
62
7
370
0
100
AcDbLine
10
178.5
20
61
11
188.5
21
61
0
SOLID
5
14A
100
AcDbEntity
8
Dim
6
CONTINUOUS
62
7
370
0
100
AcDbTrace
10
178.5
20
61
30
0
11
179.7
21
61.1998166357
31
0
12
179.7
22
60.8001833643
32
0
13
179.7
23
60.8001833643
33
0
0
SOLID
5
14B
100
AcDbEntity
8
Dim
6
CONTINUOUS
62
7
370
0
100
AcDbTrace
10
188.5
20
61
30
0
11
187.3
21
60.8001833643
31
0
12
187.3
22
61.1998166357
32
0
13
187.3
23
61.1998166357
33
0
0
MTEXT
5
14C
100
AcDbEntity
8
Dim
6
CONTINUOUS
62
7
370
0
100
AcDbMText
10
183.5
20
61.9
30
0
40
1.2
41
1.2
71
5
72
1
1
10
7
standard
210
0
220
0
230
1
50
0
73
2
44
1
0
ENDBLK
5
98
330
96
100
AcDbEntity
8
0
100
AcDbBlockEnd
0
BLOCK
5
9A
330
99
100
AcDbEntity
8
0
100
AcDbBlockBegin
2
*D31
70
1
10
0
20
0
3
*D31
1

0
LINE
5
14D
100
AcDbEntity
8
Dim22
6
CONTINUOUS
62
7
370
0
100
AcDbLine
10
163.640813782
20
78.5
11
163.640813782
21
85.5
0
SOLID
5
14E
100
AcDbEntity
8
Dim22
6
CONTINUOUS
62
7
370
0
100
AcDbTrace
10
163.640813782
20
78.5
30
0
11
163.440997146
21
79.7
31
0
12
163.840630418
22
79.7
32
0
13
163.840630418
23
79.7
33
0
0
SOLID
5
14F
100
AcDbEntity
8
Dim22
6
CONTINUOUS
62
7
370
0
100
AcDbTrace
10
163.640813782
20
85.5
30
0
11
163.840630418
21
84.3
31
0
12
163.440997146
22
84.3
32
0
13
163.440997146
23
84.3
33
0
0
MTEXT
5
150
100
AcDbEntity
8
Dim22
6
CONTINUOUS
62
7
370
0
100
AcDbMText
10
162.740813782
20
82
30
0
40
1.2
41
0.533333333333
71
5
72
1
1
7
7
standard
210
0
220
0
230
1
50
90
73
2
44
1
0
LINE
5
151
100
AcDbEntity
8
Dim22
6
CONTINUOUS
62
7
370
0
100
AcDbLine
10
160.8
20
78.5
11
164.240813782
21
78.5
0
LINE
5
152
100
AcDbEntity
8
Dim22
6
CONTINUOUS
62
7
370
0
100
AcDbLine
10
160.8
20
85.5
11
164.240813782
21
85.5
0
ENDBLK
5
9B
330
99
100
AcDbEntity
8
0
100
AcDbBlockEnd
0
BLOCK
5
9D
330
9C
100
AcDbEntity
8
0
100
AcDbBlockBegin
2
*D12
70
1
10
0
20
0
3
*D12
1

0
LINE
5
153
100
AcDbEntity
8
Dim
6
CONTINUOUS
62
7
370
0
100
AcDbLine
10
158.254230424
20
78.6720387033
11
156.364165546
21
79.995084118
0
LINE
5
154
100
AcDbEntity
8
Dim
6
CONTINUOUS
62
7
370
0
100
AcDbLine
10
154.813456358
20
73.7566471802
11
152.92339148
21
75.0796925949
0
LINE
5
155
100
AcDbEntity
8
Dim
6
CONTINUOUS
62
7
370
0
100
AcDbLine
10
156.855704698
20
79.6510067114
11
153.414930632
21
74.7356151883
0
SOLID
5
156
100
AcDbEntity
8
Dim
6
CONTINUOUS
62
7
370
0
100
AcDbTrace
10
156.855704698
20
79.6510067114
30
0
11
156.331246051
21
78.5533410904
31
0
12
156.003853719
22
78.7825157231
32
0
13
156.003853719
23
78.7825157231
33
0
0
SOLID
5
157
100
AcDbEntity
8
Dim
6
CONTINUOUS
62
7
370
0
100
AcDbTrace
10
153.414930632
20
74.7356151883
30
0
11
153.939389279
21
75.8332808093
31
0
12
154.266781611
22
75.6041061765
32
0
13
154.266781611
23
75.6041061765
33
0
0
MTEXT
5
158
100
AcDbEntity
8
Dim
6
CONTINUOUS
62
7
370
0
100
AcDbMText
10
154.398008936
20
77.7094270598
30
0
40
1.2
41
0.533333333333
71
5
72
1
1
6
7
standard
210
0
220
0
230
1
50
55.0079798028
73
2
44
1
0
ENDBLK
5
9E
330
9C
100
AcDbEntity
8
0
100
AcDbBlockEnd
0
BLOCK
5
A0
330
9F
100
AcDbEntity
8
0
100
AcDbBlockBegin
2
*D13
70
1
10
0
20
0
3
*D13
1

0
LINE
5
159
100
AcDbEntity
8
Dim
6
CONTINUOUS
62
7
370
0
100
AcDbLine
10
115.177253131
20
86.5
11
115.177253131
21
50.5
0
SOLID
5
15A
100
AcDbEntity
8
Dim
6
CONTINUOUS
62
7
370
0
100
AcDbTrace
10
115.177253131
20
86.5
30
0
11
115.377069767
21
85.3
31
0
12
114.977436495
22
85.3
32
0
13
114.977436495
23
85.3
33
0
0
SOLID
5
15B
100
AcDbEntity
8
Dim
6
CONTINUOUS
62
7
370
0
100
AcDbTrace
10
115.177253131
20
50.5
30
0
11
114.977436495
21
51.7
31
0
12
115.377069767
22
51.7
32
0
13
115.377069767
23
51.7
33
0
0
MTEXT
5
15C
100
AcDbEntity
8
Dim
6
CONTINUOUS
62
7
370
0
100
AcDbMText
10
114.277253131
20
68.5
30
0
40
1.2
41
1.46666666667
71
5
72
1
1
36
7
standard
210
0
220
0
230
1
50
90
73
2
44
1
0
LINE
5
15D
100
AcDbEntity
8
Dim
6
CONTINUOUS
62
7
370
0
100
AcDbLine
10
100.8
20
86.5
11
115.777253131
21
86.5
0
LINE
5
15E
100
AcDbEntity
8
Dim
6
CONTINUOUS
62
7
370
0
100
AcDbLine
10
148.8
20
50.5
11
115.777253131
21
50.5
0
ENDBLK
5
A1
330
9F
100
AcDbEntity
8
0
100
AcDbBlockEnd
0
BLOCK
5
A3
330
A2
100
AcDbEntity
8
0
100
AcDbBlockBegin
2
*D28
70
1
10
0
20
0
3
*D28
1

0
LINE
5
15F
100
AcDbEntity
8
Dim22
6
CONTINUOUS
62
7
370
0
100
AcDbLine
10
147.317198147
20
86.3279612967
11
152.074894291
21
82.997573996
0
LINE
5
160
100
AcDbEntity
8
Dim22
6
CONTINUOUS
62
7
370
0
100
AcDbLine
10
143.876424081
20
81.4125697735
11
148.634120225
21
78.0821824728
0
LINE
5
161
100
AcDbEntity
8
Dim22
6
CONTINUOUS
62
7
370
0
100
AcDbLine
10
151.583355139
20
83.3416514026
11
148.142581073
21
78.4262598794
0
SOLID
5
162
100
AcDbEntity
8
Dim22
6
CONTINUOUS
62
7
370
0
100
AcDbTrace
10
151.583355139
20
83.3416514026
30
0
11
151.058896492
21
82.2439857816
31
0
12
150.73150416
22
82.4731604143
32
0
13
150.73150416
23
82.4731604143
33
0
0
SOLID
5
163
100
AcDbEntity
8
Dim22
6
CONTINUOUS
62
7
370
0
100
AcDbTrace
10
148.142581073
20
78.4262598794
30
0
11
148.66703972
21
79.5239255004
31
0
12
148.994432052
22
79.2947508677
32
0
13
148.994432052
23
79.2947508677
33
0
0
MTEXT
5
164
100
AcDbEntity
8
Dim22
6
CONTINUOUS
62
7
370
0
100
AcDbMText
10
149.125659378
20
81.4000717509
30
0
40
1.2
41
0.533333333333
71
5
72
1
1
6
7
standard
210
0
220
0
230
1
50
55.0079798033
73
2
44
1
0
ENDBLK
5
A4
330
A2
100
AcDbEntity
8
0
100
AcDbBlockEnd
0
BLOCK
5
A6
330
A5
100
AcDbEntity
8
0
100
AcDbBlockBegin
2
*D20
70
1
10
0
20
0
3
*D20
1

0
LINE
5
165
100
AcDbEntity
8
Dim2
6
CONTINUOUS
62
7
370
0
100
AcDbLine
10
198.672038703
20
50.7457695761
11
207.014710301
21
62.6638718567
0
LINE
5
166
100
AcDbEntity
8
Dim2
6
CONTINUOUS
62
7
370
0
100
AcDbLine
10
200.014320582
20
49.8061722607
11
208.35699218
21
61.7242745413
0
LINE
5
167
100
AcDbEntity
8
Dim2
6
CONTINUOUS
62
7
370
0
100
AcDbLine
10
204.704476285
20
63.5486423309
11
209.979071382
21
59.8564257624
0
SOLID
5
168
100
AcDbEntity
8
Dim2
6
CONTINUOUS
62
7
370
0
100
AcDbTrace
10
206.670632894
20
62.1723327044
30
0
11
205.572967273
21
62.6967913514
31
0
12
205.802141906
22
63.0241836839
32
0
13
205.802141906
23
63.0241836839
33
0
0
SOLID
5
169
100
AcDbEntity
8
Dim2
6
CONTINUOUS
62
7
370
0
100
AcDbTrace
10
208.012914773
20
61.232735389
30
0
11
209.110580394
21
60.7082767419
31
0
12
208.881405761
22
60.3808844094
32
0
13
208.881405761
23
60.3808844094
33
0
0
MTEXT
5
16A
100
AcDbEntity
8
Dim2
6
CONTINUOUS
62
7
370
0
100
AcDbMText
10
210.399610434
20
60.6606384311
30
0
40
1.2
41
3.96666666667
71
5
72
1
1
1 5/8
7
standard
210
0
220
0
230
1
50
325.007979799
73
2
44
1
0
ENDBLK
5
A7
330
A5
100
AcDbEntity
8
0
100
AcDbBlockEnd
0
BLOCK
5
A9
330
A8
100
AcDbEntity
8
0
100
AcDbBlockBegin
2
*D21
70
1
10
0
20
0
3
*D21
1

0
LINE
5
16B
100
AcDbEntity
8
Dim2
6
CONTINUOUS
62
7
370
0
100
AcDbLine
10
144.88718723
20
80.3388389012
11
140.789296503
21
74.4847092942
0
LINE
5
16C
100
AcDbEntity
8
Dim2
6
CONTINUOUS
62
7
370
0
100
AcDbLine
10
148.5
20
50.2
11
148.5
21
72.0541241362
0
ARC
5
16D
100
AcDbEntity
8
Dim2
6
CONTINUOUS
62
7
370
0
100
AcDbCircle
10
148.5
20
85.5
40
12.8458758638
100
AcDbArc
50
235.007979793
51
270
0
SOLID
5
16E
100
AcDbEntity
8
Dim2
6
CONTINUOUS
62
7
370
0
100
AcDbTrace
10
141.13337391
20
74.9762484465
30
0
11
142.254329713
21
74.5036124593
31
0
12
142.040691168
22
74.1658768765
32
0
13
142.040691168
23
74.1658768765
33
0
0
SOLID
5
16F
100
AcDbEntity
8
Dim2
6
CONTINUOUS
62
7
370
0
100
AcDbTrace
10
148.5
20
72.6541241362
30
0
11
147.29197916
21
72.5105541606
31
0
12
147.310638284
22
72.9097515914
32
0
13
147.310638284
23
72.9097515914
33
0
0
MTEXT
5
170
100
AcDbEntity
8
Dim2
6
CONTINUOUS
62
7
370
0
100
AcDbMText
10
144.728215597
20
73.5345228426
30
0
40
1.2
41
4.66666666667
71
8
72
1
1
34.99%%D
7
standard
210
0
220
0
230
1
50
-17.4960101036
73
2
44
1
0
ENDBLK
5
AA
330
A8
100
AcDbEntity
8
0
100
AcDbBlockEnd
0
BLOCK
5
AC
330
AB
100
AcDbEntity
8
0
100
AcDbBlockBegin
2
*D22
70
1
10
0
20
0
3
*D22
1

0
LINE
5
171
100
AcDbEntity
8
Dim2
6
CONTINUOUS
62
7
370
0
100
AcDbLine
10
136.362897039
20
86.6720387033
11
129.745781629
21
91.3040194901
0
LINE
5
172
100
AcDbEntity
8
Dim2
6
CONTINUOUS
62
7
370
0
100
AcDbLine
10
100.2
20
86.5
11
128.231447889
21
86.5
0
ARC
5
173
100
AcDbEntity
8
Dim2
6
CONTINUOUS
62
7
370
0
100
AcDbCircle
10
136.608666615
20
86.5
40
7.77721872646
100
AcDbArc
50
145.007979801
51
180
0
SOLID
5
174
100
AcDbEntity
8
Dim2
6
CONTINUOUS
62
7
370
0
100
AcDbTrace
10
130.237320781
20
90.9599420835
30
0
11
129.799021287
21
89.8251204054
31
0
12
129.454939847
22
90.0283806192
32
0
13
129.454939847
23
90.0283806192
33
0
0
SOLID
5
175
100
AcDbEntity
8
Dim2
6
CONTINUOUS
62
7
370
0
100
AcDbTrace
10
128.831447889
20
86.5
30
0
11
128.724711875
21
87.7118308922
31
0
12
129.123156452
22
87.6810303984
32
0
13
129.123156452
23
87.6810303984
33
0
0
MTEXT
5
176
100
AcDbEntity
8
Dim2
6
CONTINUOUS
62
7
370
0
100
AcDbMText
10
128.905117081
20
88.9283300695
30
0
40
1.2
41
4.66666666667
71
8
72
1
1
34.99%%D
7
standard
210
0
220
0
230
1
50
432.503989901
73
2
44
1
0
ENDBLK
5
AD
330
AB
100
AcDbEntity
8
0
100
AcDbBlockEnd
0
BLOCK
5
AF
330
AE
100
AcDbEntity
8
0
100
AcDbBlockBegin
2
*D10
70
1
10
0
20
0
3
*D10
1

0
LINE
5
177
100
AcDbEntity
8
Dim
6
CONTINUOUS
62
7
370
0
100
AcDbLine
10
180.254230424
20
71.6720387033
11
177.582507061
21
73.5422450576
0
LINE
5
178
100
AcDbEntity
8
Dim
6
CONTINUOUS
62
7
370
0
100
AcDbLine
10
171.720222944
20
59.4805994465
11
169.048499581
21
61.3508058008
0
LINE
5
179
100
AcDbEntity
8
Dim
6
CONTINUOUS
62
7
370
0
100
AcDbLine
10
178.074046213
20
73.198167651
11
169.540038733
21
61.0067283942
0
SOLID
5
17A
100
AcDbEntity
8
Dim
6
CONTINUOUS
62
7
370
0
100
AcDbTrace
10
178.074046213
20
73.198167651
30
0
11
177.549587566
21
72.10050203
31
0
12
177.222195233
22
72.3296766627
32
0
13
177.222195233
23
72.3296766627
33
0
0
SOLID
5
17B
100
AcDbEntity
8
Dim
6
CONTINUOUS
62
7
370
0
100
AcDbTrace
10
169.540038733
20
61.0067283942
30
0
11
170.06449738
21
62.1043940151
31
0
12
170.391889712
22
61.8752193824
32
0
13
170.391889712
23
61.8752193824
33
0
0
MTEXT
5
17C
100
AcDbEntity
8
Dim
6
CONTINUOUS
62
7
370
0
100
AcDbMText
10
173.069733744
20
67.6185641328
30
0
40
1.2
41
5.03333333333
71
5
72
1
1
14 7/8
7
standard
210
0
220
0
230
1
50
55.0079798007
73
2
44
1
0
ENDBLK
5
B0
330
AE
100
AcDbEntity
8
0
100
AcDbBlockEnd
0
ENDSEC
0
SECTION
2
ENTITIES
0
LINE
5
17D
100
AcDbEntity
8
0
6
ByLayer
62
256
370
-1
100
AcDbLine
10
148.5
20
92.5
11
100.5
21
92.5
0
DIMENSION
5
17E
100
AcDbEntity
8
Dim
6
ByLayer
62
256
370
-1
100
AcDbDimension
2
*D1
10
148.5
20
95
30
0
11
124.5
21
95.9
31
0
70
33
71
5
72
0
3
Standard
53
0
210
0
220
0
230
1
100
AcDbAlignedDimension
13
100.5
23
92.5
33
0
14
148.5
24
92.5
34
0
0
LINE
5
17F
100
AcDbEntity
8
0
6
ByLayer
62
256
370
-1
100
AcDbLine
10
148.5
20
92.5
11
148.5
21
86.5
0
DIMENSION
5
180
100
AcDbEntity
8
Dim
6
ByLayer
62
256
370
-1
100
AcDbDimension
2
*D2
10
119
20
92.5
30
0
11
118.1
21
89.5
31
0
70
32
71
5
72
0
3
Standard
53
0
210
0
220
0
230
1
100
AcDbAlignedDimension
13
117.224568138
23
86.5
33
0
14
117.523992322
24
92.5
34
0
50
90
100
AcDbRotatedDimension
0
LINE
5
181
100
AcDbEntity
8
0
6
ByLayer
62
256
370
-1
100
AcDbLine
10
148.5
20
92.5
11
148.5
21
85.5
0
LINE
5
182
100
AcDbEntity
8
0
6
ByLayer
62
256
370
-1
100
AcDbLine
10
148.5
20
85.5
11
158.5
21
85.5
0
LINE
5
183
100
AcDbEntity
8
0
6
ByLayer
62
256
370
-1
100
AcDbLine
10
158.5
20
85.5
11
158.5
21
78.5
0
LINE
5
184
100
AcDbEntity
8
0
6
ByLayer
62
256
370
-1
100
AcDbLine
10
158.5
20
78.5
11
168.5
21
78.5
0
LINE
5
185
100
AcDbEntity
8
0
6
ByLayer
62
256
370
-1
100
AcDbLine
10
168.5
20
78.5
11
168.5
21
71.5
0
LINE
5
186
100
AcDbEntity
8
0
6
ByLayer
62
256
370
-1
100
AcDbLine
10
168.5
20
71.5
11
178.5
21
71.5
0
LINE
5
187
100
AcDbEntity
8
0
6
ByLayer
62
256
370
-1
100
AcDbLine
10
178.5
20
71.5
11
178.5
21
64.5
0
LINE
5
188
100
AcDbEntity
8
0
6
ByLayer
62
256
370
-1
100
AcDbLine
10
178.5
20
64.5
11
188.5
21
64.5
0
LINE
5
189
100
AcDbEntity
8
0
6
ByLayer
62
256
370
-1
100
AcDbLine
10
188.5
20
64.5
11
188.5
21
57.5
0
LINE
5
18A
100
AcDbEntity
8
0
6
ByLayer
62
256
370
-1
100
AcDbLine
10
188.5
20
57.5
11
198.5
21
57.5
0
LINE
5
18B
100
AcDbEntity
8
0
6
ByLayer
62
256
370
-1
100
AcDbLine
10
198.5
20
57.5
11
198.5
21
50.5
0
LINE
5
18C
100
AcDbEntity
8
Forms
6
ByLayer
62
256
370
-1
100
AcDbLine
10
148.5
20
92.5
11
150.5
21
92.5
0
LINE
5
18D
100
AcDbEntity
8
Forms
6
ByLayer
62
256
370
-1
100
AcDbLine
10
148.5
20
92.5
11
150.5
21
92.5
0
LINE
5
18E
100
AcDbEntity
8
Forms
6
ByLayer
62
256
370
-1
100
AcDbLine
10
148.5
20
85.5
11
148.5
21
92.5
0
LINE
5
18F
100
AcDbEntity
8
Forms
6
ByLayer
62
256
370
-1
100
AcDbLine
10
145.292524973
20
77.9799880266
11
146.439449661
21
79.6184518676
0
LINE
5
190
100
AcDbEntity
8
Forms
6
ByLayer
62
256
370
-1
100
AcDbLine
10
155.123308019
20
71.0984398942
11
156.270232708
21
72.7369037353
0
LINE
5
191
100
AcDbEntity
8
Forms
6
ByLayer
62
256
370
-1
100
AcDbLine
10
164.954091065
20
64.2168917619
11
166.101015754
21
65.8553556029
0
LINE
5
192
100
AcDbEntity
8
Forms
6
ByLayer
62
256
370
-1
100
AcDbLine
10
174.784874111
20
57.3353436295
11
175.9317988
21
58.9738074706
0
LINE
5
193
100
AcDbEntity
8
Forms
6
ByLayer
62
256
370
-1
100
AcDbLine
10
184.615657158
20
50.4537954972
11
185.762581846
21
52.0922593382
0
LINE
5
194
100
AcDbEntity
8
0
6
ByLayer
62
256
370
-1
100
AcDbLine
10
136.608666615
20
86.5
11
185.762581846
21
52.0922593382
0
LINE
5
195
100
AcDbEntity
8
Forms
6
ByLayer
62
256
370
-1
100
AcDbLine
10
135.461741926
20
84.861536159
11
184.615657158
21
50.4537954972
0
DIMENSION
5
196
100
AcDbEntity
8
Dim
6
ByLayer
62
256
370
-1
100
AcDbDimension
2
*D3
10
164
20
85.5
30
0
11
163.1
21
82
31
0
70
33
71
5
72
0
3
Standard
53
0
210
0
220
0
230
1
100
AcDbAlignedDimension
13
160.5
23
78.5
33
0
14
160.5
24
85.5
34
0
0
LINE
5
197
100
AcDbEntity
8
Forms
6
ByLayer
62
256
370
-1
100
AcDbLine
10
135.461741926
20
84.861536159
11
136.608666615
21
86.5
0
DIMENSION
5
198
100
AcDbEntity
8
Dim
6
ByLayer
62
256
370
-1
100
AcDbDimension
2
*D4
10
198.5
20
94.9984003678
30
0
11
173.5
21
95.8984003678
31
0
70
32
71
5
72
0
3
Standard
53
0
210
0
220
0
230
1
100
AcDbAlignedDimension
13
148.5
23
92.5
33
0
14
198.5
24
57.5
34
0
100
AcDbRotatedDimension
0
LINE
5
199
100
AcDbEntity
8
0
6
ByLayer
62
256
370
-1
100
AcDbLine
10
148.5
20
86.5
11
100.5
21
86.5
0
DIMENSION
5
19A
100
AcDbEntity
8
Dim
6
ByLayer
62
256
370
-1
100
AcDbDimension
2
*D5
10
97.4040274187
20
50.5
30
0
11
96.5040274187
21
71.5
31
0
70
32
71
5
72
0
3
Standard
53
0
210
0
220
0
230
1
100
AcDbAlignedDimension
13
100.5
23
92.5
33
0
14
100.5
24
50.5
34
0
50
90
100
AcDbRotatedDimension
0
LINE
5
19B
100
AcDbEntity
8
0
6
ByLayer
62
256
370
-1
100
AcDbLine
10
100.5
20
92.5
11
100.5
21
86.5
0
LINE
5
19C
100
AcDbEntity
8
0
6
ByLayer
62
256
370
-1
100
AcDbLine
10
185.762581846
20
52.0922593382
11
184.648000309
21
50.5
0
LINE
5
19D
100
AcDbEntity
8
0
6
ByLayer
62
256
370
-1
100
AcDbLine
10
184.648000309
20
50.5
11
198.5
21
50.5
0
LINE
5
19E
100
AcDbEntity
8
Dim
6
ByLayer
62
256
370
-1
100
AcDbLine
10
148.5
20
50.5
11
100.5
21
50.5
0
LINE
5
19F
100
AcDbEntity
8
Forms
6
ByLayer
62
256
370
-1
100
AcDbLine
10
136.608666615
20
86.5
11
185.762581846
21
52.0922593382
0
LINE
5
1A0
100
AcDbEntity
8
Forms
6
ByLayer
62
256
370
-1
100
AcDbLine
10
185.762581846
20
52.0922593382
11
174.784874111
21
57.3353436295
0
LINE
5
1A1
100
AcDbEntity
8
Forms
6
ByLayer
62
256
370
-1
100
AcDbLine
10
174.784874111
20
57.3353436295
11
166.101015754
21
65.8553556029
0
LINE
5
1A2
100
AcDbEntity
8
Forms
6
ByLayer
62
256
370
-1
100
AcDbLine
10
166.101015754
20
65.8553556029
11
155.123308019
21
71.0984398942
0
LINE
5
1A3
100
AcDbEntity
8
Forms
6
ByLayer
62
256
370
-1
100
AcDbLine
10
155.123308019
20
71.0984398942
11
146.439449661
21
79.6184518676
0
LINE
5
1A4
100
AcDbEntity
8
Forms
6
ByLayer
62
256
370
-1
100
AcDbLine
10
146.439449661
20
79.6184518676
11
135.461741926
21
84.861536159
0
LINE
5
1A5
100
AcDbEntity
8
Forms
6
ByLayer
62
256
370
-1
100
AcDbLine
10
136.608666615
20
86.5
11
145.292524973
21
77.9799880266
0
LINE
5
1A6
100
AcDbEntity
8
Forms
6
ByLayer
62
256
370
-1
100
AcDbLine
10
145.292524973
20
77.9799880266
11
156.270232708
21
72.7369037353
0
LINE
5
1A7
100
AcDbEntity
8
Forms
6
ByLayer
62
256
370
-1
100
AcDbLine
10
156.270232708
20
72.7369037353
11
164.954091065
21
64.2168917619
0
LINE
5
1A8
100
AcDbEntity
8
Forms
6
ByLayer
62
256
370
-1
100
AcDbLine
10
164.954091065
20
64.2168917619
11
175.9317988
21
58.9738074706
0
LINE
5
1A9
100
AcDbEntity
8
Forms
6
ByLayer
62
256
370
-1
100
AcDbLine
10
175.9317988
20
58.9738074706
11
184.615657158
21
50.4537954972
0
LINE
5
1AA
100
AcDbEntity
8
Forms
6
ByLayer
62
256
370
-1
100
AcDbLine
10
150.5
20
92.5
11
148.5
21
85.5
0
DIMENSION
5
1AB
100
AcDbEntity
8
Dim
6
ByLayer
62
256
370
-1
100
AcDbDimension
2
*D6
10
148.5
20
88.303146069
30
0
11
142.554333308
21
89.203146069
31
0
70
32
71
5
72
0
3
Standard
53
0
210
0
220
0
230
1
100
AcDbAlignedDimension
13
136.608666615
23
86.5
33
0
14
148.5
24
86.5
34
0
100
AcDbRotatedDimension
0
DIMENSION
5
1AC
100
AcDbEntity
8
Dim
6
ByLayer
62
256
370
-1
100
AcDbDimension
2
*D7
10
160.931786174
20
69.4738163089
30
0
11
163.559159781
21
74.7966214689
31
0
70
33
71
5
72
0
3
Standard
53
0
210
0
220
0
230
1
100
AcDbAlignedDimension
13
168.5
23
78.5
33
0
14
161.77063533
24
68.8866218997
34
0
0
LINE
5
1AD
100
AcDbEntity
8
Dim
6
ByLayer
62
256
370
-1
100
AcDbLine
10
148.5
20
92.5
11
198.5
21
50.5
0
LINE
5
1AE
100
AcDbEntity
8
Dim
6
ByLayer
62
256
370
-1
100
AcDbLine
10
148.5
20
92.5
11
149.157718121
21
93.4395973153
0
DIMENSION
5
1AF
100
AcDbEntity
8
Dim
6
ByLayer
62
256
370
-1
100
AcDbDimension
2
*D8
10
182.581531938
20
74.4736170543
30
0
11
178.097648048
21
78.7109257828
31
0
70
33
71
5
3
Standard
53
0
210
0
220
0
230
1
100
AcDbAlignedDimension
13
170.5
23
78.5
33
0
14
180.5
24
71.5
34
0
0
LINE
5
1B0
100
AcDbEntity
8
Dim
6
ByLayer
62
256
370
-1
100
AcDbLine
10
195.254583124
20
43.0065473207
11
200.5
21
50.5
0
DIMENSION
5
1B1
100
AcDbEntity
8
Dim
6
ByLayer
62
256
370
-1
100
AcDbDimension
2
*D9
10
160.5
20
88.7979856009
30
0
11
159.5
21
89.6979856009
31
0
70
32
71
5
3
Standard
53
0
210
0
220
0
230
1
100
AcDbAlignedDimension
13
158.5
23
85.5
33
0
14
160.5
24
85.5
34
0
100
AcDbRotatedDimension
0
DIMENSION
5
1B2
100
AcDbEntity
8
Dim
6
ByLayer
62
256
370
-1
100
AcDbDimension
2
*D10
10
169.540038733
20
61.0067283942
30
0
11
173.069733744
21
67.6185641328
31
0
70
33
71
5
72
0
3
Standard
53
0
210
0
220
0
230
1
100
AcDbAlignedDimension
13
180.5
23
71.5
33
0
14
171.96599252
24
59.3085607432
34
0
0
LINE
5
1B3
100
AcDbEntity
8
Dim
6
ByLayer
62
256
370
-1
100
AcDbLine
10
135.461741926
20
84.861536159
11
140.049440682
21
91.4153915227
0
DIMENSION
5
1B4
100
AcDbEntity
8
Dim
6
ByLayer
62
256
370
-1
100
AcDbDimension
2
*D11
10
212.16261851
20
66.7650220358
30
0
11
187.741491388
21
88.4541564144
31
0
70
33
71
5
3
Standard
53
0
210
0
220
0
230
1
100
AcDbAlignedDimension
13
148.5
23
92.5
33
0
14
198.5
24
50.5
34
0
0
DIMENSION
5
1B5
100
AcDbEntity
8
Dim
6
ByLayer
62
256
370
-1
100
AcDbDimension
2
*D12
10
153.414930632
20
74.7356151883
30
0
11
154.398008936
21
77.7094270598
31
0
70
33
71
5
72
0
3
Standard
53
0
210
0
220
0
230
1
100
AcDbAlignedDimension
13
158.5
23
78.5
33
0
14
155.059225934
24
73.5846084769
34
0
0
DIMENSION
5
1B6
100
AcDbEntity
8
Dim
6
ByLayer
62
256
370
-1
100
AcDbDimension
2
*D13
10
115.177253131
20
50.5
30
0
11
114.277253131
21
68.5
31
0
70
32
71
5
3
Standard
53
0
210
0
220
0
230
1
100
AcDbAlignedDimension
13
100.5
23
86.5
33
0
14
148.5
24
50.5
34
0
50
90
100
AcDbRotatedDimension
0
DIMENSION
5
1B7
100
AcDbEntity
8
Dim
6
ByLayer
62
256
370
-1
100
AcDbDimension
2
*D14
10
188.5
20
61
30
0
11
183.5
21
61.9
31
0
70
33
71
5
72
0
3
Standard
53
0
210
0
220
0
230
1
100
AcDbAlignedDimension
13
178.5
23
64.5
33
0
14
188.5
24
64.5
34
0
0
DIMENSION
5
1B8
100
AcDbEntity
8
Dim
6
ByLayer
62
256
370
-1
100
AcDbDimension
2
*D15
10
162.577852885
20
60.822265784
30
0
11
158.178577471
21
65.0003485782
31
0
70
33
71
5
72
0
3
Standard
53
0
210
0
220
0
230
1
100
AcDbAlignedDimension
13
155.123308022
23
71.0984398921
33
0
14
164.954091068
24
64.2168917597
34
0
0
DIMENSION
5
1B9
100
AcDbEntity
8
Dim
6
ByLayer
62
256
370
-1
100
AcDbDimension
2
*D16
10
156.825911436
20
69.9066175017
30
0
11
156.662065052
21
71.2419655326
31
0
70
33
71
5
3
Standard
53
0
210
0
220
0
230
1
100
AcDbAlignedDimension
13
156.270232711
23
72.7369037327
33
0
14
155.123308022
24
71.0984398921
34
0
0
LINE
5
1BA
100
AcDbEntity
8
Dim
6
ByLayer
62
256
370
-1
100
AcDbLine
10
164.749700251
20
92.4997775273
11
180.788277163
21
92.4997775273
0
LINE
5
1BB
100
AcDbEntity
8
Dim
6
ByLayer
62
256
370
-1
100
AcDbLine
10
199.961874992
20
92.4997775273
11
216.000451903
21
92.4997775273
0
LINE
5
1BC
100
AcDbEntity
8
Dim
6
ByLayer
62
256
370
-1
100
AcDbLine
10
184.027713961
20
92.4997775273
11
196.027713961
21
92.4997775273
0
DIMENSION
5
1BD
100
AcDbEntity
8
Dim
6
ByLayer
62
256
370
-1
100
AcDbDimension
2
*D17
10
217.666320392
20
92.4565482007
30
0
11
216.766320392
21
71.4998887637
31
0
70
32
71
5
3
Standard
53
0
210
0
220
0
230
1
100
AcDbAlignedDimension
13
200.5
23
50.5
33
0
14
216.000451903
24
92.4997775273
34
0
50
90
100
AcDbRotatedDimension
0
DIMENSION
5
1BE
100
AcDbEntity
8
Dim2
6
ByLayer
62
256
370
-1
100
AcDbDimension
2
*D18
10
206.671245944
20
62.1732084913
30
0
11
182.187362053
21
80.4105172192
31
0
70
33
71
5
3
Standard
53
0
210
0
220
0
230
1
100
AcDbAlignedDimension
13
148.5
23
85.5
33
0
14
198.5
24
50.5
34
0
0
DIMENSION
5
1BF
100
AcDbEntity
8
Dim2
6
ByLayer
62
256
370
-1
100
AcDbDimension
2
*D19
10
156.669803004
20
97.1711471485
30
0
11
152.960639455
21
100.866151639
31
0
70
33
71
5
3
Standard
53
0
210
0
220
0
230
1
100
AcDbAlignedDimension
13
140.049440682
23
91.4153915227
33
0
14
148.5
24
85.5
34
0
0
DIMENSION
5
1C0
100
AcDbEntity
8
Dim2
6
ByLayer
62
256
370
-1
100
AcDbDimension
2
*D20
10
208.012914773
20
61.232735389
30
0
11
207.857889943
21
62.4398427752
31
0
70
33
71
5
3
Standard
53
0
210
0
220
0
230
1
100
AcDbAlignedDimension
13
198.5
23
50.5
33
0
14
199.842281879
24
49.5604026846
34
0
0
LINE
5
1C1
100
AcDbEntity
8
Dim2
6
ByLayer
62
256
370
-1
100
AcDbLine
10
145.059225933
20
80.5846084773
11
145.059225933
21
86.5
0
LINE
5
1C2
100
AcDbEntity
8
Dim2
6
ByLayer
62
256
370
-1
100
AcDbLine
10
145.059225933
20
80.5846084773
11
148.5
21
85.5
0
LINE
5
1C3
100
AcDbEntity
8
Dim2
6
ByLayer
62
256
370
-1
100
AcDbLine
10
129.184225933
20
80.5846084773
11
148.5
21
80.5846084773
0
DIMENSION
5
1C4
100
AcDbEntity
8
Dim2
6
ByLayer
62
256
370
-1
100
AcDbDimension
2
*D21
10
148.5
20
50.5
30
0
11
0
21
0
31
0
70
34
71
5
72
0
3
Standard
53
0
210
0
220
0
230
1
100
AcDb2LineAngularDimension
13
148.5
23
85.5
33
0
14
145.059225933
24
80.5846084773
34
0
15
148.5
25
85.5
35
0
16
145.979974103
26
72.9037308624
36
0
0
DIMENSION
5
1C5
100
AcDbEntity
8
Dim2
6
ByLayer
62
256
370
-1
100
AcDbDimension
2
*D22
10
100.5
20
86.5
30
0
11
0
21
0
31
0
70
34
71
5
72
0
3
Standard
53
0
210
0
220
0
230
1
100
AcDb2LineAngularDimension
13
136.608666615
23
86.5
33
0
14
185.762581846
24
52.0922593382
34
0
15
148.5
25
86.5
35
0
16
129.418785833
26
89.4649191321
36
0
0
DIMENSION
5
1C6
100
AcDbEntity
8
Dim2
6
ByLayer
62
256
370
-1
100
AcDbDimension
2
*D23
10
125.209483814
20
86.5
30
0
11
124.309483814
21
83.5423042386
31
0
70
32
71
5
72
0
3
Standard
53
0
210
0
220
0
230
1
100
AcDbAlignedDimension
13
129.184225933
23
80.5846084773
33
0
14
145.059225933
24
86.5
34
0
50
90
100
AcDbRotatedDimension
0
DIMENSION
5
1C7
100
AcDbEntity
8
Dim
6
ByLayer
62
256
370
-1
100
AcDbDimension
2
*D24
10
186.676067698
20
30.7515252827
30
0
11
157.295763209
21
52.4163284304
31
0
70
33
71
5
72
0
3
Standard
53
0
210
0
220
0
230
1
100
AcDbAlignedDimension
13
136.608666615
23
86.5
33
0
14
196.401507813
24
44.6450111614
34
0
0
LINE
5
1C8
100
AcDbEntity
8
Dim22
6
ByLayer
62
256
370
-1
100
AcDbLine
10
188.037237623
20
50.5
11
186.386848688
21
51.6552722532
0
DIMENSION
5
1C9
100
AcDbEntity
8
Dim22
6
ByLayer
62
256
370
-1
100
AcDbDimension
2
*D25
10
129.670910324
20
76.5889196655
30
0
11
155.901311941
21
59.3262283922
31
0
70
33
71
5
3
Standard
53
0
210
0
220
0
230
1
100
AcDbAlignedDimension
13
188.037237623
23
50.5
33
0
14
136.608666615
24
86.5
34
0
0
DIMENSION
5
1CA
100
AcDbEntity
8
Dim2
6
ByLayer
62
256
370
-1
100
AcDbDimension
2
*D26
10
125.209772191
20
50.5560274204
30
0
11
124.309772191
21
65.5423042386
31
0
70
32
71
5
3
Standard
53
0
210
0
220
0
230
1
100
AcDbAlignedDimension
13
129.184225933
23
80.5846084773
33
0
14
129.527300171
24
50.5
34
0
50
90
100
AcDbRotatedDimension
0
DIMENSION
5
1CB
100
AcDbEntity
8
Dim2
6
ByLayer
62
256
370
-1
100
AcDbDimension
2
*D27
10
148.5
20
85.5
30
0
11
147.6
21
68
31
0
70
32
71
5
3
Standard
53
0
210
0
220
0
230
1
100
AcDbAlignedDimension
13
148.5
23
50.5
33
0
14
148.5
24
85.5
34
0
50
90
100
AcDbRotatedDimension
0
LINE
5
1CC
100
AcDbEntity
8
Dim22
6
ByLayer
62
256
370
-1
100
AcDbLine
10
147.071428571
20
86.5
11
198.5
21
50.5
0
LINE
5
1CD
100
AcDbEntity
8
Dim22
6
ByLayer
62
256
370
-1
100
AcDbLine
10
188.037237623
20
50.5
11
191.478011827
21
55.4153917209
0
LINE
5
1CE
100
AcDbEntity
8
Dim22
6
ByLayer
62
256
370
-1
100
AcDbLine
10
143.630654358
20
81.5846082663
11
147.071428571
21
86.5
0
DIMENSION
5
1CF
100
AcDbEntity
8
Dim22
6
ByLayer
62
256
370
-1
100
AcDbDimension
2
*D28
10
148.142581073
20
78.4262598794
30
0
11
149.125659378
21
81.4000717509
31
0
70
33
71
5
3
Standard
53
0
210
0
220
0
230
1
100
AcDbAlignedDimension
13
147.071428571
23
86.5
33
0
14
143.630654505
24
81.5846084768
34
0
0
DIMENSION
5
1D0
100
AcDbEntity
8
Dim22
6
ByLayer
62
256
370
-1
100
AcDbDimension
2
*D29
10
112.935209511
20
92.5
30
0
11
112.035209511
21
89.5
31
0
70
32
71
5
3
Standard
53
0
210
0
220
0
230
1
100
AcDbAlignedDimension
13
100.5
23
86.5
33
0
14
100.5
24
92.5
34
0
50
90
100
AcDbRotatedDimension
0
DIMENSION
5
1D1
100
AcDbEntity
8
Dim22
6
ByLayer
62
256
370
-1
100
AcDbDimension
2
*D30
10
148.5
20
96.2003559281
30
0
11
124.5
21
97.1003559281
31
0
70
32
71
5
3
Standard
53
0
210
0
220
0
230
1
100
AcDbAlignedDimension
13
100.5
23
92.5
33
0
14
148.5
24
92.5
34
0
100
AcDbRotatedDimension
0
DIMENSION
5
1D2
100
AcDbEntity
8
Dim22
6
ByLayer
62
256
370
-1
100
AcDbDimension
2
*D31
10
163.640813782
20
85.5
30
0
11
162.740813782
21
82
31
0
70
32
71
5
3
Standard
53
0
210
0
220
0
230
1
100
AcDbAlignedDimension
13
160.5
23
78.5
33
0
14
160.5
24
85.5
34
0
50
90
100
AcDbRotatedDimension
0
DIMENSION
5
1D3
100
AcDbEntity
8
Dim22
6
ByLayer
62
256
370
-1
100
AcDbDimension
2
*D32
10
160.5
20
87.7828247844
30
0
11
155.5
21
88.6828247844
31
0
70
32
71
5
3
Standard
53
0
210
0
220
0
230
1
100
AcDbAlignedDimension
13
150.5
23
85.5
33
0
14
160.5
24
85.5
34
0
100
AcDbRotatedDimension
0
LINE
5
1D4
100
AcDbEntity
8
Dim22
6
ByLayer
62
256
370
-1
100
AcDbLine
10
100.5
20
50.5
11
142.837834972
21
50.5
0
DIMENSION
5
1D5
100
AcDbEntity
8
Dim22
6
ByLayer
62
256
370
-1
100
AcDbDimension
2
*D33
10
119.949818798
20
86.5
30
0
11
119.049818798
21
68.5
31
0
70
32
71
5
3
Standard
53
0
210
0
220
0
230
1
100
AcDbAlignedDimension
13
142.837834972
23
50.5
33
0
14
136.608666615
24
86.5
34
0
50
90
100
AcDbRotatedDimension
0
DIMENSION
5
1D6
100
AcDbEntity
8
Dim2
6
ByLayer
62
256
370
-1
100
AcDbDimension
2
*D34
10
140.644828294
20
97.0770956205
30
0
11
145.572414147
21
97.9770956205
31
0
70
32
71
5
72
0
3
Standard
53
0
210
0
220
0
230
1
100
AcDbAlignedDimension
13
150.5
23
92.5
33
0
14
140.644828294
24
92.4717815964
34
0
100
AcDbRotatedDimension
0
LINE
5
1D7
100
AcDbEntity
8
Forms
6
ByLayer
62
256
370
-1
100
AcDbLine
10
150.5
20
92.5
11
150.5
21
87.5
0
LINE
5
1D8
100
AcDbEntity
8
Forms
6
ByLayer
62
256
370
-1
100
AcDbLine
10
148.5
20
85.5
11
150.5
21
87.5
0
LINE
5
1D9
100
AcDbEntity
8
Forms
6
ByLayer
62
256
370
-1
100
AcDbLine
10
150.055555556
20
87.0555555556
11
148.5
21
92.5
0
LINE
5
1DA
100
AcDbEntity
8
Forms
6
ByLayer
62
256
370
-1
100
AcDbLine
10
158.5
20
85.5
11
160.5
21
85.5
0
LINE
5
1DB
100
AcDbEntity
8
Forms
6
ByLayer
62
256
370
-1
100
AcDbLine
10
158.5
20
85.5
11
160.5
21
85.5
0
LINE
5
1DC
100
AcDbEntity
8
Forms
6
ByLayer
62
256
370
-1
100
AcDbLine
10
158.5
20
78.5
11
158.5
21
85.5
0
LINE
5
1DD
100
AcDbEntity
8
Forms
6
ByLayer
62
256
370
-1
100
AcDbLine
10
160.5
20
85.5
11
158.5
21
78.5
0
LINE
5
1DE
100
AcDbEntity
8
Forms
6
ByLayer
62
256
370
-1
100
AcDbLine
10
160.5
20
85.5
11
160.5
21
80.5
0
LINE
5
1DF
100
AcDbEntity
8
Forms
6
ByLayer
62
256
370
-1
100
AcDbLine
10
158.5
20
78.5
11
160.5
21
80.5
0
LINE
5
1E0
100
AcDbEntity
8
Forms
6
ByLayer
62
256
370
-1
100
AcDbLine
10
160.055555556
20
80.0555555556
11
158.5
21
85.5
0
LINE
5
1E1
100
AcDbEntity
8
Forms
6
ByLayer
62
256
370
-1
100
AcDbLine
10
168.5
20
78.5
11
170.5
21
78.5
0
LINE
5
1E2
100
AcDbEntity
8
Forms
6
ByLayer
62
256
370
-1
100
AcDbLine
10
168.5
20
78.5
11
170.5
21
78.5
0
LINE
5
1E3
100
AcDbEntity
8
Forms
6
ByLayer
62
256
370
-1
100
AcDbLine
10
168.5
20
71.5
11
168.5
21
78.5
0
LINE
5
1E4
100
AcDbEntity
8
Forms
6
ByLayer
62
256
370
-1
100
AcDbLine
10
170.5
20
78.5
11
168.5
21
71.5
0
LINE
5
1E5
100
AcDbEntity
8
Forms
6
ByLayer
62
256
370
-1
100
AcDbLine
10
170.5
20
78.5
11
170.5
21
73.5
0
LINE
5
1E6
100
AcDbEntity
8
Forms
6
ByLayer
62
256
370
-1
100
AcDbLine
10
168.5
20
71.5
11
170.5
21
73.5
0
LINE
5
1E7
100
AcDbEntity
8
Forms
6
ByLayer
62
256
370
-1
100
AcDbLine
10
170.055555556
20
73.0555555556
11
168.5
21
78.5
0
LINE
5
1E8
100
AcDbEntity
8
Forms
6
ByLayer
62
256
370
-1
100
AcDbLine
10
178.5
20
71.5
11
180.5
21
71.5
0
LINE
5
1E9
100
AcDbEntity
8
Forms
6
ByLayer
62
256
370
-1
100
AcDbLine
10
178.5
20
71.5
11
180.5
21
71.5
0
LINE
5
1EA
100
AcDbEntity
8
Forms
6
ByLayer
62
256
370
-1
100
AcDbLine
10
178.5
20
64.5
11
178.5
21
71.5
0
LINE
5
1EB
100
AcDbEntity
8
Forms
6
ByLayer
62
256
370
-1
100
AcDbLine
10
180.5
20
71.5
11
178.5
21
64.5
0
LINE
5
1EC
100
AcDbEntity
8
Forms
6
ByLayer
62
256
370
-1
100
AcDbLine
10
180.5
20
71.5
11
180.5
21
66.5
0
LINE
5
1ED
100
AcDbEntity
8
Forms
6
ByLayer
62
256
370
-1
100
AcDbLine
10
178.5
20
64.5
11
180.5
21
66.5
0
LINE
5
1EE
100
AcDbEntity
8
Forms
6
ByLayer
62
256
370
-1
100
AcDbLine
10
180.055555556
20
66.0555555556
11
178.5
21
71.5
0
LINE
5
1EF
100
AcDbEntity
8
Forms
6
ByLayer
62
256
370
-1
100
AcDbLine
10
188.5
20
64.5
11
190.5
21
64.5
0
LINE
5
1F0
100
AcDbEntity
8
Forms
6
ByLayer
62
256
370
-1
100
AcDbLine
10
188.5
20
64.5
11
190.5
21
64.5
0
LINE
5
1F1
100
AcDbEntity
8
Forms
6
ByLayer
62
256
370
-1
100
AcDbLine
10
188.5
20
57.5
11
188.5
21
64.5
0
LINE
5
1F2
100
AcDbEntity
8
Forms
6
ByLayer
62
256
370
-1
100
AcDbLine
10
190.5
20
64.5
11
188.5
21
57.5
0
LINE
5
1F3
100
AcDbEntity
8
Forms
6
ByLayer
62
256
370
-1
100
AcDbLine
10
190.5
20
64.5
11
190.5
21
59.5
0
LINE
5
1F4
100
AcDbEntity
8
Forms
6
ByLayer
62
256
370
-1
100
AcDbLine
10
188.5
20
57.5
11
190.5
21
59.5
0
LINE
5
1F5
100
AcDbEntity
8
Forms
6
ByLayer
62
256
370
-1
100
AcDbLine
10
190.055555556
20
59.0555555556
11
188.5
21
64.5
0
LINE
5
1F6
100
AcDbEntity
8
Forms
6
ByLayer
62
256
370
-1
100
AcDbLine
10
198.5
20
57.5
11
200.5
21
57.5
0
LINE
5
1F7
100
AcDbEntity
8
Forms
6
ByLayer
62
256
370
-1
100
AcDbLine
10
198.5
20
57.5
11
200.5
21
57.5
0
LINE
5
1F8
100
AcDbEntity
8
Forms
6
ByLayer
62
256
370
-1
100
AcDbLine
10
198.5
20
50.5
11
198.5
21
57.5
0
LINE
5
1F9
100
AcDbEntity
8
Forms
6
ByLayer
62
256
370
-1
100
AcDbLine
10
200.5
20
57.5
11
198.5
21
50.5
0
LINE
5
1FA
100
AcDbEntity
8
Forms
6
ByLayer
62
256
370
-1
100
AcDbLine
10
200.5
20
57.5
11
200.5
21
52.5
0
LINE
5
1FB
100
AcDbEntity
8
Forms
6
ByLayer
62
256
370
-1
100
AcDbLine
10
198.5
20
50.5
11
200.5
21
52.5
0
LINE
5
1FC
100
AcDbEntity
8
Forms
6
ByLayer
62
256
370
-1
100
AcDbLine
10
200.055555556
20
52.0555555556
11
198.5
21
57.5
0
LINE
5
1FD
100
AcDbEntity
8
Stringers
6
ByLayer
62
256
370
-1
100
AcDbLine
10
114.648000309
20
50.5
11
254.648000309
21
50.5
0
LINE
5
1FE
100
AcDbEntity
8
Stringers
6
ByLayer
62
256
370
-1
100
AcDbLine
10
147.423815163
20
6.18292070833
11
147.423815163
21
146.182920708
0
LINE
5
1FF
100
AcDbEntity
8
Stringers
6
ByLayer
62
256
370
-1
100
AcDbLine
10
147.408829175
20
78.0261925295
11
186.731961359
21
50.5
0
LINE
5
200
100
AcDbEntity
8
Stringers
6
ByLayer
62
256
370
-1
100
AcDbLine
10
186.731961359
20
50.5
11
165.806437867
21
50.5
0
LINE
5
201
100
AcDbEntity
8
Stringers
6
ByLayer
62
256
370
-1
100
AcDbLine
10
165.806437867
20
50.5
11
147.408829175
21
63.3783260849
0
LINE
5
202
100
AcDbEntity
8
Stringers
6
ByLayer
62
256
370
-1
100
AcDbLine
10
147.408829175
20
63.3783260849
11
147.408829175
21
78.0261925295
0
ENDSEC
0
SECTION
2
OBJECTS
0
DICTIONARY
5
C
330
0
100
AcDbDictionary
281
1
3
ACAD_GROUP
350
D
0
DICTIONARY
5
D
330
C
100
AcDbDictionary
281
1
0
ENDSEC
0
EOF
